<svg width="800" height="800" viewBox="0 0 800 800" fill="none" xmlns="http://www.w3.org/2000/svg">
<g clip-path="url(#clip0_148_71)">
<path fill-rule="evenodd" clip-rule="evenodd" d="M409.886 2.25868L717.934 147.342C726.169 151.247 731.439 159.53 731.439 168.659V419.294C731.439 623.294 554.686 719.2 425.698 789.271L411.157 797.177C407.628 799.059 403.769 800.047 399.863 800.047C396.004 800.047 392.145 799.059 388.616 797.177L374.074 789.271C245.04 719.2 68.3335 623.294 68.3335 419.294V168.658C68.3335 159.529 73.6043 151.247 81.8393 147.341L389.886 2.25826C396.192 -0.753405 403.581 -0.752988 409.886 2.25868ZM315.454 159.717C242.089 159.717 182.418 219.435 182.418 292.8C182.418 366.164 242.089 425.835 315.454 425.835C316.254 425.835 317.054 425.835 317.854 425.788L342.23 450.164H377.101V498.823H425.759V533.741L463.924 571.859H594.512V441.271L448.441 295.153C448.489 294.4 448.489 293.6 448.489 292.8C448.489 219.436 388.818 159.718 315.454 159.718V159.717ZM315.454 206.777C362.842 206.777 401.43 245.412 401.006 297.035L399.359 312.565L547.453 460.753V524.8H483.406L472.818 514.259V451.764H424.16V403.106H361.712L335.124 376.564L315.453 378.777C268.065 378.777 229.476 340.235 229.476 292.8C229.476 245.412 268.065 206.777 315.453 206.777H315.454ZM317.529 258.852C298.046 258.852 282.235 274.663 282.235 294.146C282.235 313.628 298.046 329.44 317.529 329.44C337.011 329.44 352.823 313.628 352.823 294.146C352.823 274.663 337.011 258.852 317.529 258.852Z" fill="white"/>
</g>
<defs>
<clipPath id="clip0_148_71">
<rect width="800" height="800" fill="white"/>
</clipPath>
</defs>
</svg>
