<svg width="52" height="52" viewBox="0 0 52 52" fill="none" xmlns="http://www.w3.org/2000/svg">
<path opacity="0.5" d="M4.33325 25.9999C4.33325 15.7861 4.33325 10.6793 7.50627 7.50627C10.6793 4.33325 15.7861 4.33325 25.9999 4.33325C36.2136 4.33325 41.3206 4.33325 44.4935 7.50627C47.6666 10.6793 47.6666 15.7861 47.6666 25.9999C47.6666 36.2136 47.6666 41.3206 44.4935 44.4935C41.3206 47.6666 36.2136 47.6666 25.9999 47.6666C15.7861 47.6666 10.6793 47.6666 7.50627 44.4935C4.33325 41.3206 4.33325 36.2136 4.33325 25.9999Z" fill="white"/>
<path fill-rule="evenodd" clip-rule="evenodd" d="M14.9798 24.3749H4.33377C4.33325 24.9018 4.33325 25.4433 4.33325 25.9999C4.33325 26.5565 4.33325 27.098 4.33377 27.6249H21.6392C21.6737 27.6254 21.7084 27.6256 21.7433 27.6256H22.0198C21.2859 30.7308 18.4961 33.0416 15.1666 33.0416C14.2691 33.0416 13.5416 33.7691 13.5416 34.6666C13.5416 35.564 14.2691 36.2916 15.1666 36.2916C19.1966 36.2916 22.6858 33.9752 24.3749 30.601V47.6661C24.9018 47.6666 25.4433 47.6666 25.9999 47.6666C26.5565 47.6666 27.098 47.6666 27.6249 47.6661V30.601C29.3141 33.9752 32.8032 36.2916 36.8332 36.2916C37.7307 36.2916 38.4582 35.564 38.4582 34.6666C38.4582 33.7691 37.7307 33.0416 36.8332 33.0416C33.5037 33.0416 30.7139 30.7308 29.9801 27.6256H30.2572C30.2919 27.6256 30.3265 27.6254 30.3612 27.6249H47.6661C47.6666 27.098 47.6666 26.5565 47.6666 25.9999C47.6666 25.4433 47.6666 24.9018 47.6661 24.3749H37.0207C37.7807 23.4253 38.3488 22.3051 38.6587 21.066C39.8248 16.4011 35.5993 12.1757 30.9345 13.3419C29.6952 13.6517 28.5748 14.2199 27.6249 14.9803V4.33377C27.098 4.33325 26.5565 4.33325 25.9999 4.33325C25.4433 4.33325 24.9018 4.33325 24.3749 4.33377V14.9798C23.4253 14.2196 22.3051 13.6517 21.066 13.3419C16.4011 12.1757 12.1757 16.4011 13.3419 21.066C13.6517 22.3051 14.2197 23.4253 14.9798 24.3749ZM24.3749 24.3749H21.661C19.2131 24.3381 17.0903 22.6594 16.4949 20.2778C15.9237 17.9931 17.9931 15.9237 20.2778 16.4949C22.6594 17.0903 24.3381 19.2131 24.3749 21.661V24.3749ZM30.3395 24.3749H27.6256V21.7433L27.6254 21.6787C27.6544 19.2234 29.3353 17.0917 31.7227 16.4949C34.0073 15.9237 36.0769 17.9931 35.5055 20.2778C34.9101 22.6594 32.7872 24.3381 30.3395 24.3749Z" fill="white"/>
</svg>
