<svg width="800" height="800" viewBox="0 0 800 800" fill="none" xmlns="http://www.w3.org/2000/svg">
<path fill-rule="evenodd" clip-rule="evenodd" d="M213.478 573.525C215.045 573.582 216.876 573.615 219.01 573.613C236.016 573.6 251.776 577.442 265.111 586.267C278.485 595.118 286.713 607.188 291.671 618.997C298.67 635.658 299.995 654.352 300.24 667.843C303.136 668.633 307.15 669.493 312.538 670.268C334.303 673.4 364.758 673.453 399.861 673.423C434.965 673.395 465.42 673.292 487.18 670.125C492.566 669.342 496.578 668.475 499.473 667.682C499.696 654.188 500.991 635.493 507.961 618.818C512.901 607.003 521.11 594.918 534.47 586.047C547.79 577.2 563.543 573.332 580.548 573.318C582.681 573.317 584.515 573.278 586.08 573.22C586.086 571.7 586.071 569.987 586.038 568.047C585.988 565.198 585.886 561.72 585.77 557.77C585.526 549.46 585.221 539.068 585.213 528.108C585.183 492.288 598.33 471.543 607.906 456.432C609.916 453.26 611.77 450.335 613.311 447.57C621.76 432.417 632.976 406.28 632.918 335.293C632.865 270.037 604.825 222.46 562.59 190.313C519.428 157.462 460.243 140.041 399.425 140.091C338.606 140.141 279.45 157.659 236.343 190.58C194.161 222.795 166.198 270.418 166.251 335.675C166.31 406.662 177.568 432.782 186.041 447.92C187.588 450.682 189.446 453.603 191.461 456.773C201.063 471.87 214.243 492.593 214.273 528.412C214.281 539.373 213.995 549.765 213.765 558.077C213.655 562.025 213.558 565.503 213.513 568.352C213.483 570.292 213.471 572.005 213.478 573.525ZM180.465 556.242C179.323 597.01 179.045 606.98 219.038 606.947C266.901 606.908 266.936 649.747 266.96 678.307C266.983 706.867 331.513 706.813 399.888 706.757C468.265 706.702 532.795 706.648 532.771 678.088C532.748 649.53 532.713 606.69 580.576 606.652C620.57 606.618 620.275 596.648 619.065 555.883C618.828 547.862 618.555 538.647 618.546 528.082C618.525 502.658 626.008 490.64 635.051 476.113C648.866 453.923 666.325 425.882 666.251 335.267C666.003 30.2968 132.667 30.7336 132.918 335.703C132.993 426.318 150.497 454.332 164.348 476.498C173.416 491.01 180.918 503.017 180.94 528.44C180.948 539.005 180.69 548.22 180.465 556.242Z" fill="white"/>
<path d="M370.055 453.632C370.093 497.463 336.962 533.022 296.052 533.053C255.142 533.083 221.947 497.577 221.908 453.743C221.87 409.912 255.002 374.353 295.912 374.323C336.822 374.292 370.018 409.8 370.055 453.632Z" fill="white"/>
<path d="M577.455 453.437C577.488 497.27 544.352 532.83 503.442 532.867C462.532 532.902 429.34 497.397 429.307 453.565C429.272 409.733 462.408 374.172 503.318 374.137C544.228 374.1 577.42 409.605 577.455 453.437Z" fill="white"/>
<path d="M449.811 611.313C449.822 626.223 438.622 640.058 423.271 640.072C412.619 640.08 404.709 633.883 399.822 625.088C394.949 633.892 387.051 640.102 376.396 640.11C361.042 640.122 349.822 626.303 349.811 611.397C349.784 579.483 399.766 556.757 399.766 556.757C399.766 556.757 449.782 578.028 449.811 611.313Z" fill="white"/>
</svg>
