<svg width="289" height="289" viewBox="0 0 289 289" fill="none" xmlns="http://www.w3.org/2000/svg">
<rect x="34" y="34" width="221" height="221" rx="110.5" fill="black" fill-opacity="0.34"/>
<rect x="17" y="17" width="255" height="255" rx="127.5" stroke="black" stroke-opacity="0.14" stroke-width="34"/>
<path d="M181.542 133.916V144.5C181.542 164.957 164.957 181.541 144.5 181.541M144.5 181.541C124.042 181.541 107.458 164.957 107.458 144.5V133.916M144.5 181.541V197.416M123.333 197.416H165.667M144.5 160.375C135.732 160.375 128.625 153.267 128.625 144.5V107.458C128.625 98.6905 135.732 91.583 144.5 91.583C153.268 91.583 160.375 98.6905 160.375 107.458V144.5C160.375 153.267 153.268 160.375 144.5 160.375Z" stroke="white" stroke-width="10" stroke-linecap="round" stroke-linejoin="round"/>
</svg>
