<svg width="800" height="800" viewBox="0 0 800 800" fill="none" xmlns="http://www.w3.org/2000/svg">
<path d="M584.303 259C581.97 258.666 579.637 258.666 577.303 259C525.637 257.333 484.637 215 484.637 163C484.637 110 527.637 66.6665 580.97 66.6665C633.97 66.6665 677.303 109.666 677.303 163C676.97 215 635.97 257.333 584.303 259Z" fill="white"/>
<path d="M693.053 490.013C655.72 515.013 603.387 524.347 555.053 518.013C567.72 490.68 574.387 460.347 574.72 428.347C574.72 395.013 567.387 363.347 553.387 335.68C602.72 329.013 655.053 338.347 692.72 363.347C745.387 398.013 745.387 455.013 693.053 490.013Z" fill="white"/>
<path d="M214.672 259C217.005 258.666 219.338 258.666 221.672 259C273.338 257.333 314.338 215 314.338 163C314.338 109.666 271.338 66.6665 218.005 66.6665C165.005 66.6665 122.005 109.666 122.005 163C122.005 215 163.005 257.333 214.672 259Z" fill="white"/>
<path d="M218.369 428.353C218.369 460.687 225.369 491.353 238.036 519.02C191.036 524.02 142.036 514.02 106.036 490.353C53.3695 455.353 53.3695 398.353 106.036 363.353C141.703 339.353 192.036 329.686 239.369 335.02C225.703 363.02 218.369 394.687 218.369 428.353Z" fill="white"/>
<path d="M404.027 529C401.36 528.667 398.36 528.667 395.36 529C334.027 527 285.026 476.667 285.026 414.667C285.36 351.333 336.36 300 400.027 300C463.36 300 514.694 351.333 514.694 414.667C514.36 476.667 465.694 527 404.027 529Z" fill="white"/>
<path d="M295.692 598.02C245.359 631.687 245.359 687.02 295.692 720.353C353.026 758.687 447.026 758.687 504.36 720.353C554.693 686.687 554.693 631.353 504.36 598.02C447.36 559.687 353.36 559.687 295.692 598.02Z" fill="white"/>
</svg>
