<svg width="800" height="800" viewBox="0 0 800 800" fill="none" xmlns="http://www.w3.org/2000/svg">
<path opacity="0.5" d="M112.584 169.414C100 187.343 100 240.636 100 347.223V399.713C100 587.647 241.299 678.85 329.952 717.577C354 728.08 366.023 733.333 400 733.333C433.977 733.333 446 728.08 470.047 717.577C558.7 678.85 700 587.647 700 399.713V347.223C700 240.636 700 187.343 687.417 169.414C674.833 151.485 624.723 134.332 524.503 100.026L505.41 93.4907C453.167 75.6081 427.047 66.6667 400 66.6667C372.953 66.6667 346.833 75.6081 294.591 93.4907L275.497 100.026C175.277 134.332 125.168 151.485 112.584 169.414Z" fill="white"/>
</svg>
