<svg width="398" height="398" viewBox="0 0 398 398" fill="none" xmlns="http://www.w3.org/2000/svg">
<path fill-rule="evenodd" clip-rule="evenodd" d="M143.436 161.799C143.075 162.239 142.672 163.927 142.54 165.551L142.301 168.503L137.512 168.419C131.792 168.318 129.872 168.307 126.858 168.355C119.325 168.476 112.851 167.069 112.851 165.312C112.851 164.117 112.345 163.897 109.444 163.831C107.194 163.78 106.786 163.935 105.586 165.291C104.394 166.641 103.956 166.809 101.632 166.809C98.0556 166.809 97.5279 167.621 97.5279 173.125C97.5279 176.853 97.6443 177.401 98.636 178.343C99.6736 179.328 100.2 179.394 106.896 179.378C111.983 179.365 114.386 179.172 115.218 178.706C116.001 178.267 117.3 178.135 119.153 178.305C121.261 178.498 122.212 178.364 123.155 177.74C123.95 177.213 125.108 176.974 126.402 177.069C128.286 177.207 128.414 177.309 128.414 178.669C128.414 180.034 128.283 180.137 126.218 180.377C125.01 180.517 123.455 181.007 122.763 181.466C121.834 182.081 120.465 182.303 117.537 182.315C112.234 182.335 111.895 182.628 111.886 187.193C111.882 189.161 111.589 191.751 111.235 192.949L110.591 195.127H96.7651H82.9392L82.6639 193.415C82.219 190.649 80.3228 187.183 78.8273 186.401C76.7601 185.32 30.2473 185.333 29.8364 186.414C29.6138 187.001 28.5105 187.14 24.0816 187.14H18.6026L17.3015 188.703L16 190.266L16.3309 195.978C16.5124 199.12 16.8739 202.307 17.1339 203.06C17.7612 204.88 17.4184 218.495 16.5866 224.787C15.9363 229.709 15.9401 229.769 16.996 230.838C17.9724 231.826 18.5978 231.931 24.3938 232.079C32.0866 232.276 35.3418 231.91 36.7305 230.692C38.0042 229.576 37.7212 227.638 36.1606 226.794C35.5994 226.491 34.4813 225.561 33.6754 224.728L32.2106 223.213L33.8636 222.956C34.7729 222.816 41.9902 222.814 49.9022 222.952L64.2879 223.204L66.1832 224.665C72.3082 229.386 76.4244 231.254 82.2046 231.934C83.6532 232.104 85.5054 232.448 86.3208 232.698C87.1363 232.949 90.0454 233.214 92.7853 233.288C96.2738 233.382 98.3415 233.68 99.6827 234.281C100.736 234.753 102.52 235.558 103.646 236.07C104.772 236.581 106.658 237 107.836 237H109.978V234.792C109.978 232.503 111.949 224.86 113.129 222.573C113.5 221.855 113.804 221.029 113.806 220.737C113.807 220.446 114.203 219.847 114.685 219.406C115.433 218.721 116.851 218.605 124.462 218.605C131.293 218.605 133.68 218.768 134.72 219.307C135.465 219.692 136.453 220.121 136.913 220.26C137.659 220.483 137.751 221.249 137.751 227.207C137.751 231.769 137.934 234.087 138.326 234.483C138.743 234.904 142.223 235.064 150.976 235.064C157.618 235.064 163.393 234.932 163.81 234.77C164.472 234.513 164.567 232.974 164.567 222.501C164.567 209.57 164.512 209.86 167.201 208.634C167.728 208.394 183.889 208.048 203.115 207.866C247.529 207.446 255.529 207.177 255.856 206.093C255.989 205.653 256.297 204.915 256.542 204.453C257.167 203.27 257.095 198.438 256.437 197.372C256.135 196.884 256.022 195.942 256.187 195.279L256.486 194.075L307.3 193.773C351.719 193.508 358.249 193.56 359.196 194.187C360.086 194.777 362.178 194.881 371.002 194.774L381.727 194.643L381.868 190.529C382.106 183.605 383.217 184.236 370.778 184.236C360.515 184.236 360.051 184.276 359.175 185.255L358.263 186.275L291.702 185.92C255.094 185.725 220.078 185.364 213.889 185.118C207.7 184.872 199.662 184.561 196.027 184.427C191.495 184.26 189.363 184.002 189.243 183.605C189.147 183.286 188.94 182.431 188.783 181.704L188.496 180.383L198.2 180.252L207.903 180.121L208.015 173.344C208.096 168.456 207.958 166.344 207.519 165.768C206.981 165.063 205.152 164.95 191.844 164.8L176.778 164.631L174.623 165.803C173.438 166.447 172.132 167.131 171.721 167.323C169.858 168.19 165.166 168.617 158.103 168.563L150.441 168.503L150.292 165.841C150.097 162.354 148.927 161 146.106 161C144.82 161 143.857 161.289 143.436 161.799ZM157.384 177.493C157.384 178.273 155.378 178.427 145.193 178.427C136.784 178.427 134.402 178.287 133.977 177.769C133.525 177.218 135.377 177.115 145.411 177.13C151.996 177.14 157.384 177.303 157.384 177.493ZM171.511 178.624C173.354 179.35 175.724 180.142 176.778 180.383C178.406 180.757 178.235 180.789 175.63 180.593C173.945 180.467 170.468 180.363 167.901 180.363H163.235L163.035 178.631L162.835 176.898L165.497 177.101C166.961 177.213 169.667 177.899 171.511 178.624ZM127.696 179.395C127.696 179.75 127.839 179.895 128.015 179.718C128.19 179.54 128.19 179.25 128.015 179.072C127.839 178.895 127.696 179.04 127.696 179.395ZM109.499 194.643C109.499 194.776 109.607 194.885 109.739 194.885C109.87 194.885 109.978 194.776 109.978 194.643C109.978 194.51 109.87 194.401 109.739 194.401C109.607 194.401 109.499 194.51 109.499 194.643ZM257.464 194.643C257.464 194.776 257.572 194.885 257.704 194.885C257.836 194.885 257.943 194.776 257.943 194.643C257.943 194.51 257.836 194.401 257.704 194.401C257.572 194.401 257.464 194.51 257.464 194.643ZM38.0574 210.113C38.3059 215.003 38.1594 215.217 34.5498 215.217H31.4463V211.08V206.943L34.6786 207.086L37.9108 207.229L38.0574 210.113ZM120.337 209.691C120.372 211.176 120.641 212.635 120.936 212.933C121.937 213.945 121.544 214.806 120.154 214.643C118.998 214.509 118.818 214.258 118.683 212.589C118.595 211.504 118.884 209.892 119.354 208.837C119.808 207.819 120.201 206.988 120.226 206.988C120.252 206.989 120.302 208.205 120.337 209.691ZM130.144 208.044C131.901 209.043 132.005 209.231 132.005 211.416C132.005 214.221 131.316 214.732 127.539 214.732C124.611 214.732 124.344 214.444 124.344 211.282C124.344 209.891 124.666 209.037 125.519 208.176C126.965 206.714 127.763 206.691 130.144 208.044ZM102.348 208.456C103.123 208.876 103.274 209.488 103.271 212.208C103.268 215.294 103.172 215.572 101.371 217.695C98.1131 221.538 94.5399 222.419 89.4971 220.624C86.5387 219.571 85.3023 218.526 84.0276 216.001C82.3473 212.672 83.8868 209.093 87.2829 208.43C90.1526 207.871 101.301 207.89 102.348 208.456ZM31.9252 222.72C31.9252 222.853 31.8174 222.962 31.6858 222.962C31.5541 222.962 31.4463 222.853 31.4463 222.72C31.4463 222.587 31.5541 222.478 31.6858 222.478C31.8174 222.478 31.9252 222.587 31.9252 222.72Z" fill="url(#paint0_radial_292_484)"/>
<defs>
<radialGradient id="paint0_radial_292_484" cx="0" cy="0" r="1" gradientUnits="userSpaceOnUse" gradientTransform="translate(199 199) rotate(88.0406) scale(44.3169 213.183)">
<stop stop-color="white"/>
<stop offset="1" stop-color="#999999"/>
</radialGradient>
</defs>
</svg>
