<svg width="204" height="164" viewBox="0 0 204 164" fill="none" xmlns="http://www.w3.org/2000/svg">
<g filter="url(#filter0_d_201_852)">
<path d="M34.6991 117.067L36.6406 124.797C37.8918 129.822 39.952 133.612 42.8211 136.167C45.6902 138.722 49.7998 140 55.1497 140H124.85C130.2 140 134.32 138.733 137.211 136.199C140.102 133.665 142.173 129.865 143.424 124.797L145.366 117.067L34.6991 117.067ZM32.5634 108.242L147.566 108.242L159.733 58.641L154.426 55.6134L124.591 77.2575C123.513 78.0305 122.574 78.3204 121.776 78.1272C120.978 77.9339 120.277 77.3864 119.673 76.4846L91.5859 34.227L88.4791 34.0982L60.133 76.6778C59.5721 77.4937 58.9357 77.9983 58.2238 78.1916C57.5119 78.3848 56.6167 78.095 55.5381 77.322L26.2858 56.0643L20.0729 57.6747L32.5634 108.242ZM22.4674 71.5244C25.315 71.5244 27.9037 70.8266 30.2336 69.4309C32.5634 68.0352 34.4186 66.1778 35.7992 63.8588C37.1799 61.5398 37.8702 58.9416 37.8702 56.0643C37.8702 53.2729 37.1799 50.7177 35.7992 48.3987C34.4186 46.0797 32.5634 44.2223 30.2336 42.8266C27.9037 41.4309 25.315 40.733 22.4674 40.733C19.6199 40.733 17.0204 41.4309 14.669 42.8266C12.3176 44.2223 10.4516 46.0797 9.07096 48.3987C7.69032 50.7177 7 53.2729 7 56.0643C7 58.9416 7.70111 61.5398 9.10332 63.8588C10.5055 66.1778 12.3823 68.0352 14.7337 69.4309C17.0851 70.8266 19.663 71.5244 22.4674 71.5244ZM90.0325 44.7269C92.837 44.7269 95.415 44.0398 97.7663 42.6656C100.118 41.2913 101.984 39.434 103.364 37.0935C104.745 34.753 105.435 32.1656 105.435 29.3313C105.435 26.5398 104.745 23.9846 103.364 21.6656C101.984 19.3466 100.118 17.4893 97.7663 16.0936C95.415 14.6979 92.837 14 90.0325 14C87.185 14 84.5855 14.6871 82.2337 16.0613C79.8825 17.4356 78.0165 19.2822 76.6359 21.6012C75.2552 23.9202 74.5649 26.4969 74.5649 29.3313C74.5649 32.1656 75.2552 34.753 76.6359 37.0935C78.0165 39.434 79.8825 41.2913 82.2337 42.6656C84.5855 44.0398 87.185 44.7269 90.0325 44.7269ZM157.532 71.5244C160.337 71.5244 162.915 70.8266 165.266 69.4309C167.618 68.0352 169.495 66.1778 170.897 63.8588C172.299 61.5398 173 58.9416 173 56.0643C173 53.2729 172.31 50.7177 170.929 48.3987C169.548 46.0797 167.682 44.2223 165.331 42.8266C162.98 41.4309 160.38 40.733 157.532 40.733C154.685 40.733 152.096 41.4309 149.767 42.8266C147.437 44.2223 145.581 46.0797 144.201 48.3987C142.82 50.7177 142.13 53.2729 142.13 56.0643C142.13 58.9416 142.82 61.5398 144.201 63.8588C145.581 66.1778 147.437 68.0352 149.767 69.4309C152.096 70.8266 154.685 71.5244 157.532 71.5244Z" fill="url(#paint0_radial_201_852)"/>
</g>
<defs>
<filter id="filter0_d_201_852" x="0" y="0" width="204" height="164" filterUnits="userSpaceOnUse" color-interpolation-filters="sRGB">
<feFlood flood-opacity="0" result="BackgroundImageFix"/>
<feColorMatrix in="SourceAlpha" type="matrix" values="0 0 0 0 0 0 0 0 0 0 0 0 0 0 0 0 0 0 127 0" result="hardAlpha"/>
<feOffset dx="12" dy="5"/>
<feGaussianBlur stdDeviation="9.5"/>
<feComposite in2="hardAlpha" operator="out"/>
<feColorMatrix type="matrix" values="0 0 0 0 0 0 0 0 0 0 0 0 0 0 0 0 0 0 0.25 0"/>
<feBlend mode="normal" in2="BackgroundImageFix" result="effect1_dropShadow_201_852"/>
<feBlend mode="normal" in="SourceGraphic" in2="effect1_dropShadow_201_852" result="shape"/>
</filter>
<radialGradient id="paint0_radial_201_852" cx="0" cy="0" r="1" gradientUnits="userSpaceOnUse" gradientTransform="translate(90 77) rotate(89.4638) scale(73.4331 96.7419)">
<stop stop-color="white"/>
<stop offset="1" stop-color="#999999"/>
</radialGradient>
</defs>
</svg>
