<svg width="800" height="800" viewBox="0 0 800 800" fill="none" xmlns="http://www.w3.org/2000/svg">
<path fill-rule="evenodd" clip-rule="evenodd" d="M573.6 160H225.36C188.72 160 158.96 188.48 160.08 222.48V577.52C159.809 583.54 160.511 589.564 162.16 595.36C181.618 582.791 202.346 572.307 224 564.08C259.04 549.68 263.12 537.04 263.12 522.96C263.12 508.88 252.8 496 241.52 484.88C231.667 475.672 223.834 464.517 218.519 452.123C213.203 439.729 210.52 426.365 210.64 412.88C210.64 358.4 245.6 312.08 306.64 312.08C367.68 312.08 402.64 359.36 402.64 412.88C403.229 426.43 400.759 439.938 395.413 452.402C390.067 464.867 381.983 475.967 371.76 484.88C360.48 495.2 350.16 508.88 350.16 522.96C350.16 537.04 355.36 549.68 389.28 564.08C434.72 582.64 477.28 603.68 486.4 640H574.4C591.341 640.261 607.708 633.86 619.977 622.174C632.246 610.489 639.436 594.454 640 577.52V222.48C639.353 205.433 632.027 189.324 619.603 177.634C607.179 165.944 590.655 159.61 573.6 160ZM568 366.8C568 371.043 566.314 375.113 563.314 378.114C560.313 381.114 556.244 382.8 552 382.8H432C427.757 382.8 423.687 381.114 420.686 378.114C417.686 375.113 416 371.043 416 366.8V342.8C416 338.556 417.686 334.487 420.686 331.486C423.687 328.486 427.757 326.8 432 326.8H552C556.244 326.8 560.313 328.486 563.314 331.486C566.314 334.487 568 338.556 568 342.8V366.8ZM608 262.8C608 267.043 606.314 271.113 603.314 274.114C600.313 277.114 596.244 278.8 592 278.8H432C427.757 278.8 423.687 277.114 420.686 274.114C417.686 271.113 416 267.043 416 262.8V238.8C416 234.556 417.686 230.487 420.686 227.486C423.687 224.486 427.757 222.8 432 222.8H592C596.244 222.8 600.313 224.486 603.314 227.486C606.314 230.487 608 234.556 608 238.8V262.8Z" fill="white"/>
</svg>
