<svg width="800" height="800" viewBox="0 0 800 800" fill="none" xmlns="http://www.w3.org/2000/svg">
<path d="M342.409 605.044L243.981 645.522L274.3 675.028L197.131 754.322L152.969 711.347C136.709 695.519 123.781 676.597 114.95 655.697L106.337 635.312L71.9906 601.884L55.7281 619.019L6.25 577.9V304.687L209.05 457.497L190.488 477.053C261.097 502.847 340.303 493.862 403.666 451.819L410.85 447.05C425.069 437.619 443.938 439.378 456.166 451.275L474.6 469.215L342.409 605.044ZM784.288 433.084L692.516 341.312C686.456 335.256 678.241 331.853 669.675 331.853H582.25L625.106 213.231H756.838C770.428 213.231 781.447 202.212 781.447 188.622C781.447 175.031 770.428 164.012 756.838 164.012H547.528C536.406 164.012 525.588 166.253 515.384 170.669L439.584 203.465L380.275 143.844C370.697 134.209 355.109 134.162 345.475 143.753C335.838 153.334 335.797 168.915 345.381 178.553L416.519 250.075C422.019 255.6 431.338 259.831 443.738 255.306L501.206 230.44L457.319 352.475C452.819 363.997 453.647 379.937 461.725 389.031L531.541 462.506L508.437 567.419C504.603 584.84 515.619 602.075 533.038 605.909C535.378 606.425 537.712 606.672 540.016 606.672C554.85 606.672 568.209 596.39 571.528 581.309L598.169 460.315C600.394 450.212 597.644 439.659 590.778 431.925L559.291 396.459H656.297L738.609 478.772C751.228 491.381 771.678 491.387 784.291 478.772C796.903 466.153 796.903 445.7 784.288 433.084ZM367.159 351.306L388.875 326.303L420.125 380.7L367.159 351.306ZM301.562 440.04L309.509 389.028L400 409.662L301.562 440.04ZM519.569 96.8154C519.569 125.059 542.466 147.956 570.709 147.956C598.953 147.956 621.85 125.059 621.85 96.8154C621.85 68.5717 598.953 45.6748 570.709 45.6748C542.466 45.6748 519.569 68.5717 519.569 96.8154Z" fill="white"/>
</svg>
