<svg width="144" height="107" viewBox="0 0 144 107" fill="none" xmlns="http://www.w3.org/2000/svg">
<path fill-rule="evenodd" clip-rule="evenodd" d="M100.787 5.81527C101.046 10.5075 100.877 12.3609 99.9081 15.4116C97.7838 22.1033 92.7104 28.4228 85.8557 32.9156C83.7697 34.2833 82.7095 34.5311 79.059 34.5076C76.6802 34.4921 74.1352 34.1514 73.4036 33.7506C71.8737 32.9125 69.4819 28.3293 69.4819 26.235C69.4819 24.9781 69.0593 25.2067 65.8043 28.2283C57.4723 35.962 49.037 37.4616 41.4371 32.5607L39.0342 31.0115L39.366 37.1166C39.8566 46.1387 42.5067 52.592 48.1522 58.5113L50.3278 60.7927V74.1366V87.4805L48.3197 87.1026C44.0619 86.3005 39.5063 83.5818 35.3405 79.3566C33.0445 77.0281 31.0284 75.1228 30.8609 75.1228C30.2962 75.1228 30.5711 79.7301 31.4516 85.0337C33.676 98.4259 39.0138 109.119 47.4726 117.125L50.9456 120.412V128.908V137.403L44.3035 140.697C26.6569 149.447 11.5937 162.657 4.24898 175.824C1.70456 180.385 -0.570462 186.002 0.127739 186C0.381068 185.999 2.24026 185 4.25948 183.78C24.4807 171.556 45.0517 168.119 68.7152 173.011C79.1035 175.159 96.6685 181.993 96.6685 183.887C96.6685 184.329 96.9256 184.849 97.2401 185.044C97.5546 185.239 98.2775 183.792 98.8472 181.829C101.401 173.02 107.43 164.042 114.366 158.718C117.389 156.398 118.962 155.659 122.09 155.089C129.056 153.818 135.607 153.648 140.847 154.6C143.565 155.094 145.876 155.423 145.981 155.33C146.086 155.239 145.752 153.67 145.239 151.844C144.499 149.215 144.224 142.678 143.914 120.353C143.699 104.858 143.312 89.4454 143.054 86.1035C142.61 80.3558 142.475 79.9141 140.551 77.9245L138.519 75.8215L139.56 73.2118C143.594 63.1026 145.318 46.4813 143.337 36.7889C141.941 29.9559 140.653 27.0879 136.204 20.9103C127.543 8.88148 116.061 1.46001 104.429 0.371042L100.465 0L100.787 5.81527ZM96.0507 57.0594V69.349L94.3515 70.132C93.4173 70.5618 91.3319 71.439 89.7174 72.0801L86.7825 73.2465V60.3405V47.4346L91.2621 46.1573C93.7262 45.4549 95.8115 44.8552 95.8962 44.8249C95.9808 44.7952 96.0507 50.3007 96.0507 57.0594ZM99.14 119.003V131.292L93.9412 131.864L88.743 132.437L88.0356 129.022C87.6463 127.144 87.4134 122.415 87.5184 118.515L87.7093 111.423L92.9613 109.108C95.8498 107.835 98.4221 106.775 98.6766 106.754C98.9312 106.732 99.14 112.244 99.14 119.003Z" fill="url(#paint0_linear_201_1532)" fill-opacity="0.25"/>
<defs>
<linearGradient id="paint0_linear_201_1532" x1="-30.5" y1="-311.5" x2="109.5" y2="93" gradientUnits="userSpaceOnUse">
<stop stop-color="white"/>
<stop offset="1" stop-color="white" stop-opacity="0"/>
</linearGradient>
</defs>
</svg>
