<svg width="122" height="87" viewBox="0 0 122 87" fill="none" xmlns="http://www.w3.org/2000/svg">
<path fill-rule="evenodd" clip-rule="evenodd" d="M121.238 0.720889C107.024 2.52278 102.311 3.75159 94.2964 7.74436C82.186 13.7775 73.8509 23.1108 68.5124 36.6156C64.7553 46.1195 62.6734 59.6888 62.6364 74.9108C62.6283 78.2364 62.0558 83.6784 61.3641 87.004C57.2763 106.657 46.6821 120.111 30.5446 126.142C27.8302 127.157 25.6062 128.249 25.6021 128.569C25.5846 129.954 44.4547 127.444 50.4883 125.26C52.8841 124.392 54.9398 123.777 55.0556 123.893C55.1715 124.009 54.2487 125.612 53.0047 127.456C50.8116 130.706 48.6664 137.924 49.3211 139.846C49.4989 140.367 50.2573 139.53 51.11 137.87C53.951 132.34 60.2931 130.245 69.8837 131.668C75.9099 132.563 85.0473 135.302 91.5376 138.159C93.5393 139.04 95.3027 139.636 95.4556 139.483C95.6091 139.331 97.1084 135.774 98.7876 131.58C102.211 123.03 103.116 121.797 108.59 118.229C114.995 114.054 119.154 113.291 130.813 114.155C136.243 114.556 142.107 114.886 143.844 114.886H147L146.641 100.945C146.254 85.9344 145.286 80.3426 141.739 72.6144C137.892 64.2318 130.462 57.7633 123.484 56.7192C121.878 56.4787 120.565 56.1717 120.565 56.0366C120.565 55.9016 121.95 54.5169 123.643 52.9602C128.736 48.2775 131.741 42.0669 133.626 32.3319C135.053 24.9604 135.562 15.7897 135.013 7.3473L134.536 0L130.076 0.0826377C127.623 0.128323 123.646 0.415871 121.238 0.720889ZM82.603 3.25644C81.984 3.93836 80.1944 4.87625 78.6257 5.33916C74.8686 6.44972 69.3961 8.95167 65.8728 11.1701C63.093 12.9209 62.9476 12.9391 58.6281 12.0858C56.204 11.6061 52.7049 10.3484 50.8527 9.29028C42.0252 4.24539 38.9626 3.14625 32.8481 2.82914C28.4485 2.60138 26.0743 2.81503 23.4185 3.67835C18.3231 5.3358 11.4031 10.1603 7.20559 14.9815C3.43239 19.3162 0 24.1065 0 25.039C0 25.336 1.89468 24.0057 4.20966 22.0829C6.52531 20.1601 10.3894 17.6548 12.7974 16.516C16.7208 14.6597 17.8045 14.4501 23.2373 14.4951C29.6872 14.5481 30.8821 14.956 41.9875 20.8863C44.1496 22.0412 47.1051 23.1451 48.5546 23.3392C50.0034 23.5327 51.1895 23.8519 51.1895 24.048C51.1895 24.2442 50.3065 25.7915 49.2268 27.4865C47.3348 30.4581 44.2075 36.8144 43.5474 39.0322C43.2895 39.9002 41.772 40.1817 35.5902 40.5076C19.516 41.3548 10.3834 46.0799 5.43282 56.1105C3.51726 59.9918 3.18991 61.4416 2.8821 67.4016C2.50357 74.7347 2.96023 75.2198 5.01118 69.6637C6.39734 65.9087 8.41393 63.6977 12.2174 61.7621C15.0093 60.3411 23.6408 58.4136 26.8327 58.4976C28.4964 58.5419 28.4533 58.6084 26.2312 59.4247C18.804 62.1544 13.3591 66.8009 10.4837 72.8643C8.41663 77.2233 7.08503 85.6153 7.9539 88.8099L8.55942 91.0351L9.39327 88.0118C11.1748 81.554 16.1159 77.7574 24.7339 76.2249C32.2615 74.8866 37.6451 74.9457 38.1941 76.3734C38.8441 78.0617 37.2195 88.2563 35.2695 94.7302C30.484 110.618 20.9816 121.344 6.39868 127.32C1.08845 129.496 1.00022 129.544 1.44408 129.987C2.01929 130.56 16.8447 129.007 21.4491 127.89C31.4788 125.458 41.452 119.348 47.8049 111.743C57.0426 100.687 61.4779 86.5256 62.2646 65.5802C63.0291 45.2199 66.8265 32.2331 75.1859 21.3909C81.1966 13.5941 90.8014 6.98652 100.863 3.72538C102.808 3.09519 104.4 2.4079 104.4 2.19895C104.4 1.71724 90.1804 2.58593 86.4422 3.29607C84.2134 3.72001 83.7109 3.64342 83.9884 2.92186C84.4741 1.6608 83.9319 1.79114 82.603 3.25644ZM115.188 21.5911C115.249 32.4844 114.86 36.8326 113.336 42.3263C110.647 52.0129 105.173 57.7653 99.6848 56.6702L97.6641 56.2671V50.9763V45.6855H94.6332H91.6022V83.0515V120.417L89.75 119.999C80.9993 118.024 76.6522 117.475 71.7872 117.73C68.7939 117.887 65.7381 118.253 64.9972 118.543C64.2563 118.833 65.1117 117.785 66.8979 116.213C74.2914 109.706 80.7069 98.766 83.8295 87.3399C85.1335 82.5671 85.7363 78.1612 86.2186 69.8719C87.1588 53.6932 87.5495 50.0008 88.9781 43.7936C92.5054 28.4641 100.402 16.1659 111.135 9.28625L114.166 7.34327L114.65 9.55028C114.916 10.7643 115.159 16.1827 115.188 21.5911ZM107.911 59.4684C114.732 59.6129 116.598 60.2565 119.417 63.4383C121.681 65.9961 124.745 73.4038 124.846 76.5655C124.942 79.5996 124.927 79.6218 121.376 81.4169C116.426 83.9196 111.225 84.4765 105.854 83.0804C103.506 82.4697 100.702 81.3437 99.6241 80.5785L97.6641 79.1864V68.7452V58.3048L99.5164 58.8174C100.535 59.0989 104.313 59.3918 107.911 59.4684ZM126.957 90.8523L127.431 98.7311L123.493 96.7148C116.184 92.9733 107.678 92.843 100.863 96.3695L97.6641 98.0249V90.3135V82.6027L99.7535 83.6804C107.372 87.61 117.004 87.4917 123.596 83.3881C124.707 82.6968 125.811 82.3199 126.049 82.5517C126.288 82.7835 126.696 86.5182 126.957 90.8523ZM122.298 99.1167L126.29 101.151L126.478 105.835L126.666 110.519L121.926 110.667C114.129 110.912 106.811 114.319 101.115 120.358C99.7723 121.781 98.4468 122.946 98.1693 122.946C97.8918 122.947 97.6641 118.131 97.6641 112.244V101.54L99.6558 100.126C103.28 97.5513 106.436 96.7679 112.532 96.9292C117.456 97.0595 118.896 97.3813 122.298 99.1167Z" fill="url(#paint0_linear_201_1519)" fill-opacity="0.25"/>
<defs>
<linearGradient id="paint0_linear_201_1519" x1="-30.7089" y1="-234.462" x2="51.9687" y2="85.0796" gradientUnits="userSpaceOnUse">
<stop stop-color="white"/>
<stop offset="1" stop-color="white" stop-opacity="0"/>
</linearGradient>
</defs>
</svg>
