<svg width="119" height="203" viewBox="0 0 119 203" fill="none" xmlns="http://www.w3.org/2000/svg">
<path fill-rule="evenodd" clip-rule="evenodd" d="M52.9313 2.36872C50.0573 5.23899 49.8571 7.32122 51.9716 12.3758C53.6816 16.4645 57.1401 17.9425 61.4612 16.4311C63.871 15.5875 64.1268 14.9631 64.3999 9.26403C64.6901 3.22546 64.6001 2.96783 61.6695 1.4544C57.5082 -0.695519 55.8214 -0.519728 52.9313 2.36872ZM84.0727 6.4463C81.2422 7.67584 80.7861 8.37497 80.7861 11.4938C80.7861 13.4851 81.5213 16.2351 82.4193 17.6041L84.0525 20.0945H79.4533C74.5922 20.0945 74.5771 20.1096 73.2392 26.6614C72.8984 28.3284 71.7304 30.8289 70.6433 32.2181C69.0597 34.2407 68.4843 34.464 67.7542 33.3415C66.7894 31.8584 65.4495 25.3389 65.2382 21.1048C65.1188 18.7275 64.7396 18.5608 58.7915 18.2779L52.4711 17.9779V22.4212C52.4711 27.2424 50.7682 33.2284 49.3959 33.2284C48.1915 33.2284 40.9115 28.9134 40.505 27.9576C40.0489 26.8887 35.1171 26.9807 33.3636 28.09C31.4412 29.3054 32.5829 34.6367 35.8078 39.5044C37.1861 41.5856 38.3136 43.8891 38.3136 44.6236C38.3136 45.3571 38.7566 46.4007 39.2976 46.9412C39.9347 47.5777 38.9558 47.9333 36.5167 47.9515C31.8123 47.9869 25.5142 50.9562 23.4422 54.1164C21.182 57.5615 20.3609 62.4544 21.3115 66.8027C22.35 71.5522 28.4529 81.1793 31.8244 83.3858C34.5851 85.1933 42.4689 85.7691 46.1508 84.4335L48.4261 83.6071V104.814V126.022L45.8505 129.079C41.8035 133.884 37.6735 135.547 33.3221 134.122C24.6638 131.287 21.1224 127.494 21.1224 121.053C21.1224 116.676 21.4318 116.047 24.5283 114.135C29.3823 111.138 35.2546 111.346 38.8132 114.641C41.9359 117.532 43.3254 116.725 43.3547 112.005C43.376 108.457 40.9014 105.289 36.2648 102.926C31.7375 100.619 26.2545 100.376 19.3669 102.18C10.1523 104.595 1.36255 116.213 0.194558 127.526C-0.293876 132.256 0.0206238 133.727 2.49616 138.27C4.85743 142.606 6.44206 144.097 11.473 146.719C16.956 149.575 18.4658 149.898 26.1786 149.866C33.5668 149.834 35.5883 149.424 40.5697 146.941C43.7896 145.337 46.7111 143.111 47.1429 141.934C47.5817 140.739 48.141 147.738 48.4261 158.001C48.8458 173.108 49.1775 176.133 50.3849 175.871C56.7305 174.493 57.2827 174.557 60.1435 177.016C62.9042 179.389 63.0893 180.017 63.0893 187.038C63.0893 193.653 62.7647 194.954 60.3083 198.171C58.7793 200.175 57.5274 202.072 57.5274 202.386C57.5274 203.612 64.4726 202.874 67.737 201.301C73.7397 198.411 76.5672 195.004 77.9 189.057C79.5443 181.714 77.9152 173.689 73.7195 168.473L70.6736 164.686V141.021C70.6736 114.222 70.8294 113.638 78.6383 111.063C83.9544 109.31 88.1137 110.911 90.3222 115.561C92.4418 120.024 92.3235 122.91 89.8277 127.562C88.682 129.697 87.9488 131.649 88.1986 131.898C89.1886 132.888 99.0746 128.845 101.436 126.486C106.6 121.327 107.188 112.808 102.801 106.654C101.595 104.961 97.9137 102.455 94.0396 100.689C88.4727 98.1524 85.9698 97.623 79.0205 97.5139L70.6817 97.3825L70.6777 87.1472L70.6736 76.9108L74.0856 74.3113L77.4976 71.7108L77.9546 79.5972C78.6332 91.3106 82.0492 95.2963 93.4794 97.7109C102.894 99.7012 112.237 95.3094 116.099 87.0795C116.829 85.5226 117.861 83.4091 118.391 82.3826C118.92 81.3561 119.149 80.3115 118.898 80.0609C118.648 79.8114 115.578 80.267 112.076 81.0763C106.316 82.4048 105.462 82.3877 103.107 80.8853C98.3111 77.8251 98.0431 76.8765 98.0098 62.8454C97.9764 49.0507 97.4657 46.2916 94.2924 42.7565C90.8269 38.8952 89.221 39.0599 85.7079 43.6335C83.916 45.9673 82.0957 48.289 81.6629 48.7921C80.41 50.251 81.9258 35.0823 83.3952 31.4604C84.1566 29.5842 85.4571 28.1769 86.4299 28.1769C87.8244 28.1769 88.0358 27.4646 87.601 24.2276C87.0872 20.4006 87.1762 20.2591 90.4891 19.6378C96.5475 18.5022 97.4637 13.0032 92.4883 7.63946C89.6498 4.57926 88.686 4.44287 84.0727 6.4463ZM24.1561 16.0533C19.6905 20.5148 23.247 26.1563 30.527 26.1563C35.5914 26.1563 37.3024 24.8298 37.3024 20.9027C37.3024 16.9757 34.0532 14.0327 29.718 14.0327C27.5266 14.0327 25.4081 14.8025 24.1561 16.0533ZM73.2796 47.9455C73.0329 49.9267 72.2906 52.1998 71.6293 52.997C69.3216 55.7743 54.0699 54.2417 44.5905 50.2803C41.2685 48.8911 41.2766 48.8871 48.1298 48.6335C51.9079 48.494 57.9572 47.5201 61.5724 46.4704C65.1876 45.4197 69.4015 44.5114 70.9366 44.4518C73.5597 44.3478 73.7003 44.5569 73.2796 47.9455ZM69.6624 64.7286C61.4581 71.6542 46.0103 74.7094 39.5777 70.6782C35.8482 68.3414 35.5873 67.416 37.9799 65.0256C39.4078 63.5991 40.6941 63.4708 46.3227 64.1961C54.5533 65.256 66.1281 64.9418 68.4398 63.595C71.4978 61.8139 72.2694 62.5282 69.6624 64.7286Z" fill="url(#paint0_linear_201_76)" fill-opacity="0.25"/>
<defs>
<linearGradient id="paint0_linear_201_76" x1="-24.8596" y1="-339.97" x2="163.739" y2="66.9784" gradientUnits="userSpaceOnUse">
<stop stop-color="white"/>
<stop offset="1" stop-color="white" stop-opacity="0"/>
</linearGradient>
</defs>
</svg>
