<svg width="144" height="105" viewBox="0 0 144 105" fill="none" xmlns="http://www.w3.org/2000/svg">
<path fill-rule="evenodd" clip-rule="evenodd" d="M127.483 2.27371C123.51 8.46799 122.454 11.5657 122.441 17.0576C122.428 22.9245 122.996 24.0476 126.933 25.9399C128.701 26.789 130.852 26.9654 139.062 26.9351C145.122 26.912 150.705 26.5605 153.276 26.0399C155.605 25.5677 160.244 25.175 163.585 25.1677C170.297 25.1525 172.592 26.0053 173.286 28.7721C173.79 30.7856 170.752 36.0119 166.682 40.1346C162.11 44.7645 160.218 46.1143 153.111 49.8151L148.711 52.1061L140.205 43.7814C135.527 39.203 131.451 35.3664 131.147 35.2555C130.843 35.144 130.594 34.6846 130.594 34.2343C130.594 33.7839 128.584 31.3741 126.127 28.88C121.391 24.0725 118.623 19.3734 118.063 15.1938C117.747 12.8294 118.853 7.27399 119.64 7.27399C119.85 7.27399 120.361 6.7285 120.776 6.0618C122.03 4.05139 120.265 4.55808 117.371 7.04004C111.724 11.8833 108.862 19.0001 109.731 26.0374C110.593 33.0069 113.372 36.9465 126.109 49.2484L135.233 58.0604L132.276 59.3993L129.319 60.7387L123.236 54.7651C119.892 51.4794 116.776 48.4308 116.314 47.9908C115.851 47.5501 115.473 46.9792 115.473 46.7228C115.473 46.4658 113.622 44.3718 111.361 42.0686C106.458 37.0774 104.266 33.7942 103.319 30.0243C102.392 26.3381 102.917 22.8785 104.845 19.9583C106.058 18.1219 106.208 17.5776 105.502 17.5776C103.953 17.5776 98.154 23.9743 96.3316 27.6933C94.8424 30.7322 94.6059 31.925 94.6059 36.398C94.6059 44.9997 97.2854 49.1314 111.39 62.2794C114.302 64.9929 116.662 67.4318 116.635 67.6997C116.609 67.9676 114.51 69.8229 111.97 71.823C106.99 75.7444 103.634 79.7483 101.301 84.551C98.7328 89.8385 98.2647 92.1338 98.3185 99.1912C98.3681 105.752 98.3258 105.976 96.9019 106.739C93.144 108.755 86.025 119.098 86.5875 121.726C86.7442 122.455 87.0992 122.177 87.8692 120.723C89.5004 117.642 92.4624 115.261 95.9759 114.206C98.9112 113.324 99.4024 113.33 102.248 114.277C106.252 115.609 109.753 119.076 110.605 122.551C111.557 126.436 113.801 133.474 114.531 134.865C115.861 137.402 118.208 140.389 120.578 142.56C128.038 149.393 140.823 151.007 150.119 146.286C154.28 144.174 159.56 138.678 161.718 134.214C162.675 132.234 164.801 129.276 166.443 127.641C169.727 124.369 171.409 121.057 172.059 116.578C172.425 114.051 172.916 113.255 175.584 110.85C183.397 103.806 184.081 94.3703 177.601 83.0097C174.172 76.999 173.692 76.4457 161.773 64.782L151.48 54.7099L155.362 52.7468C162.946 48.9102 167.373 45.5488 171.58 40.4285C173.203 38.4545 178.217 28.8437 179.865 24.5477C181.484 20.3262 181.469 15.6641 179.828 13.8398C179.129 13.0622 178.333 11.8803 178.058 11.2136C177.578 10.0463 177.551 10.0517 177.322 11.3651C177.102 12.6234 176.763 12.7288 172.938 12.7288C170.657 12.7288 167.342 13.0192 165.57 13.3743C163.799 13.7295 160.988 14.2719 159.324 14.5792C157.661 14.8871 152.801 15.8435 148.523 16.7054C138.742 18.6758 130.528 18.9686 128.959 17.403C127.242 15.6902 127.519 9.75412 129.553 4.69142C131.51 -0.179755 131.49 0.000860844 130.07 0.000860844C129.427 0.000860844 128.312 0.980308 127.483 2.27371ZM10.9842 8.76619C8.57143 9.16985 6.42845 9.66927 6.2216 9.87656C6.01474 10.0838 7.41375 10.9481 9.33051 11.7973C17.5371 15.4344 19.5826 21.9281 15.2913 30.7183C13.9062 33.5548 12.9221 35.0398 9.53857 39.397C9.15026 39.897 7.46153 41.731 5.78611 43.4729C4.11068 45.2149 2.89373 46.7937 3.08063 46.9816C3.36793 47.2689 16.0044 42.4456 22.0244 39.7509C23.0224 39.3042 26.0164 38.0969 28.6777 37.0677C43.765 31.2347 55.9176 26.0168 56.067 25.3071C56.3815 23.8191 51.576 17.2339 48.5747 15.0405C44.333 11.9397 40.3392 10.2717 34.1213 9.00317C27.8672 7.72735 17.8129 7.62431 10.9842 8.76619ZM69.5811 27.609C65.7971 29.4255 62.4632 30.9116 62.1717 30.9116C61.2553 30.9116 61.5735 31.945 64.0612 37.0465L66.4806 42.0074V77.6742C66.4806 108.974 66.3693 113.34 65.5733 113.34C64.7768 113.34 64.6661 108.929 64.6661 77.2778V41.2152H63.154H61.6418V49.0945V56.9737H59.8273H58.0128L58.0097 48.6399L58.0061 40.3061L55.2408 34.9767C52.7881 30.2498 52.3272 29.694 51.1617 30.0577C49.6883 30.5171 38.1327 36.2847 37.0603 37.0956C36.5698 37.4666 37.1341 39.1466 39.0121 42.9014C41.3952 47.6677 41.6553 48.6157 41.668 52.5795L41.6819 56.9737H39.8674C38.0746 56.9737 38.0528 56.9343 38.0528 53.6905C38.0528 51.6164 38.3311 50.3054 38.8089 50.1297C39.4137 49.9078 39.4137 49.6915 38.8089 49.049C38.3934 48.6072 38.0528 46.9368 38.0528 45.3367C38.0528 42.522 37.9948 42.4274 36.2764 42.4274C34.7455 42.4274 34.474 42.6802 34.3107 44.2572L34.1213 46.087L30.7947 43.6705C27.3059 41.1365 26.3001 40.8552 24.0186 41.7759C23.2547 42.0844 19.7714 43.199 16.2784 44.253C8.94764 46.4652 6.47805 47.3174 5.85143 47.8514C5.60586 48.0611 8.25086 50.1309 11.7299 52.4516L18.0554 56.6706L18.0742 83.7933C18.0851 99.236 17.8613 110.916 17.5552 110.916C17.2588 110.916 16.8989 113.848 16.7544 117.432C16.5409 122.735 16.2088 124.568 14.9695 127.288C12.3602 133.017 8.40207 136.143 2.9391 136.792C-2.82811 137.476 0.451968 138.796 7.92061 138.796C20.0859 138.796 28.9263 133.436 32.2427 124.049C33.087 121.66 33.8897 119.023 34.0264 118.189C34.1631 117.356 34.2399 121.3 34.1982 126.953L34.1213 137.232L30.1898 138.701C28.0275 139.509 24.3531 140.873 22.0244 141.732C12.7249 145.164 9.05288 148.097 8.55872 152.487C8.36094 154.249 8.49098 155.161 8.94159 155.161C9.3172 155.161 9.62507 154.629 9.62507 153.98C9.62507 152.803 12.1926 150.574 15.0687 149.253C15.9003 148.871 19.6189 147.717 23.3327 146.688C31.2278 144.5 32.9098 143.734 35.9577 140.936L38.2174 138.862L38.1055 126.88C38.0444 120.29 38.1284 115.033 38.293 115.197C38.4569 115.362 40.9283 120.194 43.7844 125.934C46.6404 131.675 49.231 136.372 49.5413 136.372C50.0947 136.372 61.037 114.974 61.037 113.892C61.037 113.588 60.3565 113.34 59.5249 113.34H58.0128V94.2485V75.1565H59.8273H61.6418V106.976V138.796H63.154H64.6661L64.677 128.038L64.6878 117.28L69.4395 126.649C72.0531 131.802 74.473 136.112 74.8166 136.227C75.3567 136.407 86.4405 115.011 86.4405 113.789C86.4405 113.542 85.3445 113.34 84.0048 113.34H81.5691L81.6187 73.7692C81.6483 50.2533 81.4366 33.5924 81.0973 32.7063C79.7213 29.114 77.2959 24.247 76.8967 24.2755C76.6565 24.2925 73.365 25.7926 69.5811 27.609ZM34.2719 96.2183C34.177 104.469 34.099 97.7183 34.099 81.2174C34.099 64.7165 34.177 57.9659 34.2719 66.2166C34.3669 74.4674 34.3669 87.9675 34.2719 96.2183ZM146.224 68.5955C150.54 72.8212 153.953 76.3972 153.808 76.5426C153.663 76.6881 156.367 79.6404 159.816 83.1036C166.519 89.8319 169.383 93.5048 172.012 98.742C173.998 102.699 174.326 107.804 172.776 110.613L171.772 112.431L171.734 110.613C171.679 108.033 169.421 102.847 166.137 97.7632C163.147 93.1332 159.485 89.3082 142.818 73.4097C137.093 67.9482 132.409 63.2928 132.409 63.0637C132.409 62.44 136.19 60.7327 137.358 60.829C137.917 60.8757 141.907 64.3705 146.224 68.5955ZM138.911 88.7773C141.655 91.4016 143.901 93.7224 143.901 93.9339C143.901 94.1454 146.97 97.4389 150.721 101.253C158.089 108.746 162.159 114.71 163.594 120.116C164.347 122.954 164.336 123.685 163.504 126.213C162.984 127.792 162.307 129.24 162 129.43C161.693 129.621 161.441 130.25 161.441 130.83C161.441 132.458 157.191 136.18 154.395 137.002C147.26 139.099 140.141 134.254 138.396 126.113C136.667 118.046 134.965 114.571 130.468 109.931C126.671 106.013 121.34 103.336 115.473 102.403C111.438 101.76 110.436 101.813 106.4 102.874C103.905 103.531 101.346 104.291 100.712 104.562C99.6117 105.035 99.5754 104.788 99.8953 99.0463C100.278 92.1908 101.212 89.3306 104.928 83.6418C107.698 79.4028 111.559 75.4668 116.373 71.9757L119.39 69.7883L126.656 76.8966C130.651 80.8059 136.167 86.1523 138.911 88.7773ZM41.6819 94.2485V113.34H39.8674H38.0528V94.2485V75.1565H39.8674H41.6819V94.2485ZM102.106 144.347C101.308 145.4 99.1574 147.223 97.3278 148.399C92.4866 151.511 89.0879 154.92 87.3575 158.4C85.9101 161.311 85.399 163.646 86.2095 163.646C86.4151 163.646 87.5111 162.83 88.6458 161.832C91.5799 159.25 94.8564 157.714 98.4497 157.237L101.562 156.823V160.131V163.44L97.0374 165.741C94.5485 167.008 92.6184 168.214 92.7473 168.423C92.8761 168.633 95.1951 169.885 97.9006 171.207L102.819 173.61L102.644 177.871C102.461 182.331 102.557 182.22 99.5959 181.381C98.7479 181.141 98.5374 181.463 98.5374 182.999C98.5374 185.41 96.0467 187.89 93.6261 187.89C92.3178 187.89 91.6827 187.44 90.9267 185.975C90.0182 184.213 90.0164 183.908 90.9073 182.187C91.4408 181.156 92.2186 179.829 92.6366 179.236C93.2596 178.352 93.2329 178.054 92.489 177.578C91.99 177.26 91.3912 176.995 91.1589 176.989C90.0829 176.966 87.5474 181.41 86.9159 184.424C86.2645 187.538 86.3202 187.975 87.7234 190.709L89.2307 193.648L94.5461 193.824L99.8615 194L102.513 191.551C104.993 189.26 105.396 189.102 108.777 189.102H112.391L112.571 185.314C112.926 177.868 112.431 171.525 111.497 171.525C110.246 171.525 110.287 165.728 111.542 165.245C112.286 164.959 112.449 163.428 112.449 156.713V148.528L110.483 148.019C109.212 147.69 107.877 146.626 106.703 145.009C105.705 143.633 104.589 142.491 104.223 142.47C103.856 142.449 102.904 143.294 102.106 144.347ZM70.7 146.718C69.2109 148.742 67.7024 150.719 67.3474 151.112C66.9929 151.506 66.2133 152.578 65.6145 153.494L64.527 155.161H66.7135H68.9V169.707V184.253H66.7328C65.4602 184.253 64.6546 184.521 64.781 184.903C64.9001 185.26 66.3518 187.425 68.0072 189.714C70.7278 193.476 71.2226 193.88 73.1551 193.913C75.122 193.948 75.5708 193.585 78.7499 189.394C80.6509 186.888 82.2066 184.706 82.2066 184.546C82.2066 184.385 81.3901 184.253 80.3921 184.253H78.5775V169.744V155.234L80.7084 155.046L82.8393 154.858L78.4402 148.979C76.0208 145.746 73.8984 143.086 73.7242 143.069C73.55 143.053 72.1891 144.695 70.7 146.718Z" fill="url(#paint0_linear_201_1539)" fill-opacity="0.25"/>
<defs>
<linearGradient id="paint0_linear_201_1539" x1="-38.0206" y1="-324.898" x2="88.2058" y2="110.985" gradientUnits="userSpaceOnUse">
<stop stop-color="white"/>
<stop offset="1" stop-color="white" stop-opacity="0"/>
</linearGradient>
</defs>
</svg>
