<svg width="144" height="76" viewBox="0 0 144 76" fill="none" xmlns="http://www.w3.org/2000/svg">
<path fill-rule="evenodd" clip-rule="evenodd" d="M65.0277 15.3837C64.8124 23.8448 64.457 44.8486 64.2374 62.059L63.8385 93.3514L66.5301 93.7107C68.8426 94.0205 69.44 93.8529 70.7762 92.5202C72.974 90.3298 76.2021 89.1301 79.9166 89.1239C83.1851 89.119 87.2147 90.6823 88.7804 92.5635C89.2853 93.1702 90.5867 93.5363 92.2368 93.5363C94.7491 93.5363 94.9029 93.4305 95.2739 91.4597C95.6659 89.3787 96.3073 80.7951 97.4537 62.3064C97.7912 56.8644 98.4022 48.4694 98.8122 43.6507C99.4102 36.6132 99.4009 34.5143 98.7644 32.9831C98.329 31.9343 97.6733 31.0765 97.3073 31.0765C96.9413 31.0765 94.2541 31.797 91.3349 32.677C88.415 33.557 84.0728 34.8389 81.6845 35.5248C74.2332 37.6657 71.4492 38.7183 71.4554 39.3929C71.4585 39.7504 72.8685 44.0787 74.5887 49.0105C76.3082 53.9424 78.5457 60.4821 79.5605 63.5432C80.576 66.6044 81.6585 69.6655 81.9661 70.3458C82.2744 71.026 82.994 73.0625 83.5647 74.8713C84.3953 77.5008 84.8078 78.0735 85.6254 77.729C86.1874 77.4922 87.2978 77.1582 88.0937 76.9869C88.8895 76.8156 89.6724 76.332 89.8343 75.9121C90.1401 75.1175 90.0043 74.6901 83.8339 57.0499C78.5407 41.9185 78.7765 42.8202 80.0128 42.4269C80.5909 42.2426 81.7621 41.848 82.615 41.55C83.4679 41.2513 86.1459 40.4727 88.5657 39.819L92.9657 38.6298L92.743 41.5011C92.6202 43.0805 92.2548 48.6858 91.931 53.9578C90.9862 69.3495 89.9776 83.9286 89.8492 84.0566C89.7841 84.1216 87.9287 83.5928 85.7253 82.8816C82.2168 81.7487 81.3024 81.6757 78.3497 82.2935C76.4962 82.6807 73.8604 83.5792 72.4932 84.2898L70.0076 85.5816L70.4158 56.0097C70.6397 39.7454 71.0088 22.026 71.2352 16.6335L71.6465 6.82852L73.8741 7.23049C76.6401 7.72893 86.4356 9.36092 89.6829 9.86308L92.0985 10.2372L91.7573 20.0385L91.4161 29.8397H94.3719H97.3271L97.7756 17.7281C98.0225 11.0665 98.1243 5.51687 98.0027 5.39566C97.8811 5.27445 96.1138 4.88918 94.0754 4.53915C85.8314 3.12546 79.0376 1.92203 76.1016 1.35556C74.3958 1.02657 71.2942 0.586874 69.2093 0.378469L65.4185 0L65.0277 15.3837ZM54.3904 1.39143C51.7336 1.88616 41.0144 3.68822 37.1765 4.28561C35.6034 4.5305 34.8472 4.97143 34.8398 5.64859C34.8336 6.25587 34.3218 5.85885 33.5383 4.63934C32.8281 3.53423 31.9925 2.62949 31.6811 2.62949C31.3697 2.62949 28.6428 4.1545 25.6206 6.01778C22.5984 7.88168 18.833 9.95893 17.2531 10.6342C15.6725 11.3089 14.3797 12.1333 14.3797 12.4654C14.3797 12.7974 15.0472 14.9638 15.8629 17.2797C16.6793 19.5963 17.843 23.1608 18.449 25.2016C19.0557 27.2424 19.5929 28.977 19.6432 29.0562C19.7492 29.2238 22.8285 28.3332 24.5679 27.6326C25.5405 27.2405 25.6832 27.3537 25.3396 28.2467C25.1076 28.849 24.6225 31.3325 24.2614 33.7654C23.9004 36.1976 23.1802 40.2754 22.661 42.8264C22.1418 45.3773 21.336 49.8299 20.8708 52.721C20.4055 55.6121 19.7145 59.6472 19.3361 61.688C18.9571 63.7288 18.307 67.6248 17.8907 70.3458L17.1333 75.2931L16.3127 70.655C15.8611 68.104 15.3561 65.5995 15.1905 65.0893C15.0249 64.5791 14.5094 61.7962 14.0454 58.9051C13.5808 56.014 12.8941 51.9789 12.5188 49.9381C12.1435 47.8974 11.4307 43.8622 10.9339 40.9711C10.4376 38.0801 9.76579 34.3232 9.44012 32.6226C9.11507 30.9219 8.40666 26.8868 7.86637 23.6556C7.32607 20.4243 6.66046 16.456 6.3869 14.837C6.11396 13.2186 5.75914 11.7628 5.59847 11.6033C5.43781 11.4431 4.06814 11.5297 2.55456 11.7956C-0.486252 12.3293 -0.396306 12.0251 0.689255 18.0898C1.02423 19.9605 1.71465 23.8565 2.22393 26.7476C2.73259 29.6387 3.45651 33.6739 3.83304 35.7146C4.20896 37.7554 4.90247 41.7905 5.37454 44.6816C5.8466 47.5727 6.54942 51.4687 6.93588 53.3394C7.32234 55.2101 8.02517 59.1061 8.49723 61.9972C8.9693 64.8883 9.65909 68.9234 10.0307 70.9642C10.7844 75.1063 12.2254 83.2712 13.1937 88.8827C13.5448 90.9148 13.8847 92.6186 13.9505 92.6687C14.2259 92.8789 19.9632 93.595 19.9663 93.4194C19.9713 93.1584 21.055 86.9236 21.8546 82.5594C22.2125 80.604 22.9104 76.6381 23.4048 73.7471C23.8992 70.856 24.5958 66.96 24.9525 65.0893C25.3098 63.2186 25.994 59.3226 26.4729 56.4315C26.9524 53.5404 27.6521 49.5052 28.028 47.4645C28.4046 45.4237 29.1055 41.5277 29.5863 38.8067C30.067 36.0857 30.7643 32.1897 31.1352 30.1489C31.5068 28.1081 32.1966 24.073 32.6686 21.1819C34.3057 11.1562 35.4706 6.38388 35.4706 9.70724C35.4706 10.6349 35.8335 10.7456 37.7968 10.4135C47.2456 8.81734 51.6548 8.02577 54.017 7.50074C55.5728 7.15504 56.9784 7.1266 57.2873 7.43457C57.5851 7.7314 57.7532 13.461 57.6608 20.1665L57.492 32.3579L50.8906 24.4508C39.6609 11.001 40.6168 11.9057 37.6281 11.9057H34.9812L34.5544 21.3365C34.2077 28.9993 33.039 93.0576 33.2418 93.2945C33.2735 93.3316 34.565 93.527 36.112 93.728C38.5989 94.052 38.9941 93.937 39.5238 92.733C39.8532 91.9847 41.3792 90.7256 42.9145 89.9353C45.1997 88.759 46.3914 88.5488 49.4837 88.7739C53.6473 89.0769 56.5615 90.558 56.5615 92.3706C56.5615 93.3526 57.0361 93.5363 59.572 93.5363H62.583L62.9837 88.8048C63.2046 86.2025 63.3851 75.6641 63.3851 65.3867V46.6995L60.7605 46.3489C59.317 46.1559 58.0714 46.0625 57.992 46.1411C57.9132 46.2202 57.6539 54.5713 57.4157 64.7003C56.9858 83.0115 56.9759 83.1135 55.6869 82.6949C54.9735 82.4636 52.576 82.1371 50.3583 81.9695C46.9453 81.7116 45.7636 81.9126 42.662 83.2805L38.9978 84.8964L39.3997 74.5287C39.6206 68.827 39.9878 54.6709 40.2155 43.0707L40.6292 21.9803L42.2911 23.8998C43.2048 24.9561 44.5391 26.5157 45.2568 27.366C45.9739 28.2164 47.1674 29.6078 47.9087 30.4581C48.65 31.3084 50.2721 33.254 51.5134 34.7814C57.211 41.7936 57.7464 42.208 61.1023 42.208H64.2033L63.7957 28.7575C63.5712 21.3594 63.3875 12.0374 63.3863 8.04061L63.3851 0.774253L60.1284 0.851555C58.3369 0.894225 55.7551 1.13726 54.3904 1.39143ZM145.109 1.75691C144.855 2.01046 144.647 3.87869 144.647 5.90894C144.647 7.93981 144.374 11.9978 144.04 14.9279C141.875 33.9429 141.795 32.1859 145.028 36.5519C145.238 36.8352 149.835 34.4883 166.048 25.82C168.095 24.7254 172.802 22.2289 176.509 20.2722L183.247 16.7139L182.884 20.958C182.685 23.2919 182.369 29.6542 182.183 35.0962C181.995 40.5382 181.575 49.3043 181.247 54.5762C180.919 59.8482 180.321 69.5066 179.918 76.0395L179.185 87.9168L176.887 86.1017C172.475 82.6188 169.131 81.5502 162.636 81.549C157.784 81.5477 156.284 81.7858 154.144 82.8977L151.544 84.2477L151.222 81.6256C151.045 80.1835 150.592 71.7681 150.216 62.9248C149.839 54.0815 149.375 45.2456 149.183 43.2902L148.835 39.7343H146.072H143.308L143.569 47.6191C144.058 62.4016 145.35 89.5129 145.631 90.908C146.055 93.0125 150.615 92.8529 154.462 90.5988C157.018 89.101 157.998 88.8982 162.676 88.8982C169.058 88.8982 172.541 90.3719 176.347 94.6834C178.453 97.0687 179.164 97.4663 181.753 97.7149L184.735 98L185.484 85.7189C185.895 78.9646 186.508 68.9853 186.846 63.5432C187.958 45.5919 188.965 23.4558 188.983 16.5438L189 9.74125L186.4 9.55263C184.358 9.40483 182.894 9.85256 179.576 11.6392C175.474 13.8488 172.153 15.6063 159.225 22.4107C155.813 24.2059 152.069 26.2455 150.905 26.9418L148.789 28.2089L149.224 23.9221C149.464 21.5647 149.806 17.5487 149.984 14.9978C150.543 6.97076 148.171 7.85447 168.502 8.09751L186.209 8.30962V5.52924V2.74823L179.85 2.39388C167.493 1.70497 145.564 1.30299 145.109 1.75691ZM101.826 4.63934C101.81 4.78343 101.494 10.4827 99.9858 37.8791C99.6583 43.8313 98.9673 57.5953 98.4499 68.4658C97.9332 79.3369 97.3377 89.1462 97.1274 90.2649L96.744 92.2995L100.38 92.2661C103.744 92.2358 104.594 91.8975 111.753 87.7399L119.49 83.2465L123.998 85.9032C133.92 91.7515 136.415 92.9179 139.003 92.9179H141.545L141.517 85.6515C141.501 81.6547 141.233 71.2889 140.921 62.6156C140.609 53.9424 140.063 38.0801 139.706 27.366C139.35 16.652 138.915 7.25956 138.739 6.49458C138.467 5.30599 138.015 5.10315 135.641 5.10315C134.112 5.10315 132.861 5.3802 132.861 5.71785C132.861 6.05613 130.097 8.16801 126.718 10.4104L120.576 14.4876L114.05 10.1228C110.46 7.72213 107.346 5.47172 107.129 5.12108C106.802 4.59419 101.885 4.14708 101.826 4.63934ZM114.403 15.717C117.386 17.7027 120.178 19.326 120.607 19.3254C121.035 19.3248 123.897 17.6551 126.968 15.6143L132.551 11.9051L132.968 17.0076C133.395 22.2332 134.569 51.632 135.263 74.491L135.652 87.2946L133.481 85.9848C131.269 84.6503 129.088 83.4197 122.82 79.9677L119.291 78.0252L113.205 81.5267C109.857 83.4524 106.567 85.4122 105.894 85.8809C105.221 86.3503 104.42 86.7337 104.113 86.7337C103.538 86.7337 103.872 75.0055 104.94 57.6683C105.612 46.7719 106.609 29.2813 107.17 18.5549C107.443 13.3349 107.751 11.4048 108.265 11.6985C108.657 11.9236 111.42 13.7319 114.403 15.717ZM27.7526 13.9155C25.5933 27.0463 25.4642 27.3518 24.0561 22.6556C23.4556 20.6544 22.6529 18.2011 22.2715 17.203C21.8192 16.0181 21.7944 15.3169 22.2001 15.1821C22.5425 15.0683 23.7838 14.2983 24.9593 13.4709C27.7892 11.4784 28.144 11.5353 27.7526 13.9155ZM110.529 34.2935C109.335 35.0313 108.253 35.7115 108.124 35.8049C107.995 35.8989 109.554 38.5606 111.59 41.72C113.625 44.8795 115.493 47.8151 115.742 48.2437C116.139 48.9295 110.738 60.0343 109.219 61.6571C108.916 61.9799 108.67 62.5365 108.672 62.8939C108.677 63.644 112.09 65.7077 113.326 65.7077C113.785 65.7077 115.518 63.2118 117.178 60.1611L120.195 54.614L123.582 60.1413C125.444 63.1815 127.161 65.6774 127.398 65.6879C128.337 65.7306 132.241 63.0664 132.241 62.3831C132.241 61.6948 130.585 58.9583 129.762 58.2867C129.555 58.1167 128.084 55.8928 126.495 53.3456L123.606 48.7131L125.752 44.8208C126.933 42.6798 127.898 40.6873 127.898 40.3923C127.898 39.5995 123.556 37.1877 122.879 37.6045C122.559 37.8018 121.722 39.0881 121.018 40.4628L119.739 42.963L116.53 37.9533C114.765 35.1982 113.181 32.946 113.011 32.9485C112.84 32.9509 111.724 33.5557 110.529 34.2935Z" fill="url(#paint0_linear_201_1546)" fill-opacity="0.25"/>
<defs>
<linearGradient id="paint0_linear_201_1546" x1="-39.4829" y1="-164.124" x2="-6.51825" y2="69.8863" gradientUnits="userSpaceOnUse">
<stop stop-color="white"/>
<stop offset="1" stop-color="white" stop-opacity="0"/>
</linearGradient>
</defs>
</svg>
