<svg width="800" height="800" viewBox="0 0 800 800" fill="none" xmlns="http://www.w3.org/2000/svg">
<path fill-rule="evenodd" clip-rule="evenodd" d="M149.672 275.302C149.675 261.502 159.247 244.562 171.091 237.437L378.144 112.88C389.972 105.765 409.128 105.765 420.978 112.905L628.103 237.699C639.934 244.824 649.519 261.771 649.516 275.63L649.428 524.39C649.425 538.212 639.838 555.218 628.028 562.371L420.528 688.012C408.713 695.168 389.581 695.165 377.747 687.98L170.975 562.402C159.163 555.23 149.594 538.237 149.6 524.43L149.672 275.302ZM193.222 255.071L398.953 369.943L595.097 256.574L398.622 141.205L193.222 255.071ZM179.953 292.249C179.953 297.337 176.625 516.812 176.625 516.812C176.519 523.705 181.209 532.177 187.147 535.762L379.684 651.955L381.456 410.04C381.456 410.04 179.953 287.159 179.953 292.249ZM417.788 651.43L608.138 530.618C615.425 525.993 621.334 515.259 621.334 506.621V291.015L417.788 408.243V651.43Z" fill="white"/>
<path fill-rule="evenodd" clip-rule="evenodd" d="M243 413.397C228.056 422.028 208.244 415.694 198.75 399.253C189.259 382.813 193.681 362.488 208.625 353.859C223.572 345.228 243.384 351.563 252.875 368.003C262.369 384.444 257.947 404.769 243 413.397ZM343 479.022C328.056 487.653 308.244 481.319 298.75 464.878C289.259 448.438 293.681 428.113 308.625 419.484C323.572 410.853 343.384 417.188 352.875 433.628C362.369 450.069 357.947 470.394 343 479.022ZM243 529.022C228.056 537.653 208.244 531.319 198.75 514.878C189.259 498.438 193.681 478.113 208.625 469.484C223.572 460.853 243.384 467.188 252.875 483.628C262.369 500.069 257.947 520.394 243 529.022ZM343 594.647C328.056 603.278 308.244 596.944 298.75 580.503C289.259 564.063 293.681 543.738 308.625 535.109C323.572 526.478 343.384 532.813 352.875 549.253C362.369 565.694 357.947 586.019 343 594.647ZM587.494 350.734C572.547 342.103 552.738 348.438 543.244 364.878C533.753 381.319 538.172 401.644 553.119 410.272C568.066 418.903 587.878 412.569 597.369 396.128C606.863 379.688 602.441 359.363 587.494 350.734ZM536.75 441.359C521.806 432.728 501.994 439.063 492.5 455.503C483.009 471.944 487.431 492.269 502.375 500.897C517.322 509.528 537.134 503.194 546.625 486.753C556.119 470.313 551.697 449.988 536.75 441.359ZM483.625 528.859C468.681 520.228 448.869 526.563 439.375 543.003C429.884 559.444 434.306 579.769 449.25 588.397C464.197 597.028 484.009 590.694 493.5 574.253C502.994 557.813 498.572 537.488 483.625 528.859ZM401.563 215.625C381.716 215.625 365.625 231.016 365.625 250C365.625 268.984 381.716 284.375 401.563 284.375C421.409 284.375 437.5 268.984 437.5 250C437.5 231.016 421.409 215.625 401.563 215.625Z" fill="white"/>
</svg>
