<svg width="800" height="800" viewBox="0 0 800 800" fill="none" xmlns="http://www.w3.org/2000/svg">
<path d="M246 333.161C246 252.991 310.991 188 391.161 188V188C393.834 188 396 190.166 396 192.839V362C396 364.761 393.761 367 391 367H251C248.239 367 246 364.761 246 362V333.161Z" fill="black"/>
<path d="M246 395C246 392.239 248.239 390 251 390H549C551.761 390 554 392.239 554 395V525C554 607.843 486.843 675 404 675H396C313.157 675 246 607.843 246 525V395Z" fill="white"/>
<path d="M404 192.839C404 190.166 406.166 188 408.839 188V188C489.009 188 554 252.991 554 333.161V362C554 364.761 551.761 367 549 367H409C406.239 367 404 364.761 404 362V192.839Z" fill="white"/>
</svg>
