<svg width="90" height="18" viewBox="0 0 90 18" fill="none" xmlns="http://www.w3.org/2000/svg">
<rect width="90" height="18" rx="5" fill="url(#paint0_linear_338_240)" fill-opacity="0.57"/>
<path d="M5.97656 12L7.82031 6.29688H9.43359L11.2969 12H9.80078L8.64844 8.04688C8.61719 7.95052 8.58854 7.85807 8.5625 7.76953C8.53906 7.68099 8.51693 7.58984 8.49609 7.49609H8.46484C8.44401 7.58984 8.42057 7.68099 8.39453 7.76953C8.37109 7.85807 8.34375 7.95052 8.3125 8.04688L7.16797 12H5.97656ZM6.93359 10.7656L7.26953 9.83984H9.85156L10.1875 10.7656H6.93359ZM16.3359 13.1328V12H12.6016V13.1328H11.3125V11.0742H17.625V13.1328H16.3359ZM12.4766 6.3125H16.8828V12H15.4961V7.23828H13.5156L13.3945 9.51172C13.3633 10.0924 13.306 10.5273 13.2227 10.8164C13.1419 11.1029 13.0417 11.3359 12.9219 11.5156H11.7031C11.8776 11.2891 12.013 11.0326 12.1094 10.7461C12.2057 10.4596 12.2708 10.013 12.3047 9.40625L12.4766 6.3125ZM18.3984 12V6.3125H20.1445L21.2148 9.75781C21.2461 9.84896 21.2747 9.9388 21.3008 10.0273C21.3294 10.1159 21.3555 10.2135 21.3789 10.3203H21.4062C21.4297 10.2135 21.4544 10.1159 21.4805 10.0273C21.5065 9.9388 21.5339 9.84896 21.5625 9.75781L22.5781 6.3125H24.4023V12H23.0156V8.44141C23.0156 8.34766 23.0169 8.24349 23.0195 8.12891C23.0247 8.01172 23.0312 7.90755 23.0391 7.81641H23C22.9766 7.90755 22.9505 8.01172 22.9219 8.12891C22.8932 8.24349 22.8646 8.34766 22.8359 8.44141L21.7539 12H20.668L19.5547 8.42188C19.526 8.32812 19.4987 8.22396 19.4727 8.10938C19.4492 7.99479 19.431 7.89062 19.418 7.79688H19.375C19.3828 7.89062 19.3906 7.99479 19.3984 8.10938C19.4062 8.22396 19.4102 8.32812 19.4102 8.42188V12H18.3984ZM30.957 12H29.5664V8.46875C29.5664 8.39062 29.569 8.30339 29.5742 8.20703C29.5794 8.10807 29.5846 8.01953 29.5898 7.94141H29.5508C29.5195 8.00911 29.4792 8.08203 29.4297 8.16016C29.3802 8.23568 29.332 8.3151 29.2852 8.39844L27.207 12H25.7188V6.3125H27.1055V9.75781C27.1055 9.83594 27.1029 9.94401 27.0977 10.082C27.0924 10.2174 27.0872 10.3242 27.082 10.4023H27.1211C27.1523 10.3346 27.194 10.2526 27.2461 10.1562C27.3008 10.0599 27.3529 9.97005 27.4023 9.88672L29.4648 6.3125H30.957V12ZM32.2734 12V6.3125H33.6602V8.60547H36.1016V6.3125H37.4922V12H36.1016V9.53125H33.6602V12H32.2734ZM44.043 12H42.6523V8.46875C42.6523 8.39062 42.6549 8.30339 42.6602 8.20703C42.6654 8.10807 42.6706 8.01953 42.6758 7.94141H42.6367C42.6055 8.00911 42.5651 8.08203 42.5156 8.16016C42.4661 8.23568 42.418 8.3151 42.3711 8.39844L40.293 12H38.8047V6.3125H40.1914V9.75781C40.1914 9.83594 40.1888 9.94401 40.1836 10.082C40.1784 10.2174 40.1732 10.3242 40.168 10.4023H40.207C40.2383 10.3346 40.2799 10.2526 40.332 10.1562C40.3867 10.0599 40.4388 9.97005 40.4883 9.88672L42.5508 6.3125H44.043V12ZM45.1406 9.31641V8.99609C45.1406 8.11589 45.4089 7.42969 45.9453 6.9375C46.4818 6.44271 47.151 6.19531 47.9531 6.19531C48.7708 6.19531 49.3984 6.38542 49.8359 6.76562C50.276 7.14323 50.5195 7.63151 50.5664 8.23047V8.27734H49.1406L49.1328 8.23047C49.1172 7.94401 49.013 7.69401 48.8203 7.48047C48.6276 7.26432 48.3385 7.15625 47.9531 7.15625C47.5469 7.15625 47.2148 7.32161 46.957 7.65234C46.6992 7.98047 46.5703 8.42839 46.5703 8.99609V9.31641C46.5703 9.90234 46.6992 10.3555 46.957 10.6758C47.2148 10.9961 47.5469 11.1562 47.9531 11.1562C48.3464 11.1562 48.6406 11.0482 48.8359 10.832C49.0312 10.6133 49.1315 10.3633 49.1367 10.082L49.1406 10.0352H50.5664V10.082C50.5378 10.6758 50.2982 11.1641 49.8477 11.5469C49.3971 11.9271 48.7656 12.1172 47.9531 12.1172C47.151 12.1172 46.4818 11.8711 45.9453 11.3789C45.4089 10.8841 45.1406 10.1966 45.1406 9.31641ZM51.0156 7.23828V6.3125H55.9766V7.23828H54.1914V12H52.8008V7.23828H51.0156ZM56.7266 12V6.3125H59.0391C59.8125 6.3125 60.4062 6.48047 60.8203 6.81641C61.237 7.15234 61.4453 7.60417 61.4453 8.17188C61.4453 8.73958 61.237 9.19401 60.8203 9.53516C60.4062 9.8763 59.8125 10.0469 59.0391 10.0469H58.1133V12H56.7266ZM58.1133 9.12109H59.0391C59.4115 9.12109 59.6732 9.02995 59.8242 8.84766C59.9779 8.66276 60.0547 8.4375 60.0547 8.17188C60.0547 7.90625 59.9779 7.6849 59.8242 7.50781C59.6732 7.32812 59.4115 7.23828 59.0391 7.23828H58.1133V9.12109ZM61.7031 12L63.5469 6.29688H65.1602L67.0234 12H65.5273L64.375 8.04688C64.3438 7.95052 64.3151 7.85807 64.2891 7.76953C64.2656 7.68099 64.2435 7.58984 64.2227 7.49609H64.1914C64.1706 7.58984 64.1471 7.68099 64.1211 7.76953C64.0977 7.85807 64.0703 7.95052 64.0391 8.04688L62.8945 12H61.7031ZM62.6602 10.7656L62.9961 9.83984H65.5781L65.9141 10.7656H62.6602ZM67.0938 7.23828V6.3125H72.0547V7.23828H70.2695V12H68.8789V7.23828H67.0938ZM72.5859 9.31641V8.99609C72.5859 8.11589 72.8451 7.42969 73.3633 6.9375C73.8841 6.44271 74.5612 6.19531 75.3945 6.19531C76.2279 6.19531 76.9049 6.44271 77.4258 6.9375C77.9492 7.42969 78.2109 8.11589 78.2109 8.99609V9.31641C78.2109 10.1966 77.9492 10.8841 77.4258 11.3789C76.9049 11.8711 76.2279 12.1172 75.3945 12.1172C74.5612 12.1172 73.8841 11.8711 73.3633 11.3789C72.8451 10.8841 72.5859 10.1966 72.5859 9.31641ZM74.0156 9.31641C74.0156 9.88932 74.138 10.3398 74.3828 10.668C74.6302 10.9935 74.9674 11.1562 75.3945 11.1562C75.8242 11.1562 76.1628 10.9935 76.4102 10.668C76.6576 10.3398 76.7812 9.88932 76.7812 9.31641V8.99609C76.7812 8.42318 76.6576 7.97396 76.4102 7.64844C76.1628 7.32031 75.8242 7.15625 75.3945 7.15625C74.9674 7.15625 74.6302 7.32031 74.3828 7.64844C74.138 7.97396 74.0156 8.42318 74.0156 8.99609V9.31641ZM79.3047 12V6.3125H81.6172C82.3906 6.3125 82.9844 6.48047 83.3984 6.81641C83.8151 7.15234 84.0234 7.60417 84.0234 8.17188C84.0234 8.73958 83.8151 9.19401 83.3984 9.53516C82.9844 9.8763 82.3906 10.0469 81.6172 10.0469H80.6914V12H79.3047ZM80.6914 9.12109H81.6172C81.9896 9.12109 82.2513 9.02995 82.4023 8.84766C82.556 8.66276 82.6328 8.4375 82.6328 8.17188C82.6328 7.90625 82.556 7.6849 82.4023 7.50781C82.2513 7.32812 81.9896 7.23828 81.6172 7.23828H80.6914V9.12109Z" fill="white" fill-opacity="0.6"/>
<defs>
<linearGradient id="paint0_linear_338_240" x1="80" y1="-3.90017e-06" x2="26.8508" y2="47.8342" gradientUnits="userSpaceOnUse">
<stop stop-color="#FF3636"/>
<stop offset="1" stop-color="#8B1515" stop-opacity="0.58"/>
</linearGradient>
</defs>
</svg>
