<svg width="800" height="800" viewBox="0 0 800 800" fill="none" xmlns="http://www.w3.org/2000/svg">
<g clip-path="url(#clip0_84_2)">
<path fill-rule="evenodd" clip-rule="evenodd" d="M423.813 101.618L725.563 270.141C743.604 279.156 755 297.583 755 317.741V368.865C755 393.357 735.134 413.214 710.625 413.214H684V697.043H719.5C739.107 697.043 755 712.927 755 732.521C755 752.116 739.107 768 719.5 768H80.5C60.8941 768 45 752.116 45 732.521C45 712.927 60.8941 697.043 80.5 697.043H116V413.214H89.375C64.8672 413.214 45 393.357 45 368.865V317.741C45 299.263 54.5757 282.239 70.067 272.587L376.187 101.618C391.178 94.1273 408.822 94.1273 423.813 101.618ZM577.5 413.214H222.5V697.043H293.5V484.171H364.5V697.043H435.5V484.171H506.5V697.043H577.5V413.214ZM400 235.822C380.393 235.822 364.5 251.707 364.5 271.301C364.5 290.895 380.393 306.779 400 306.779C419.607 306.779 435.5 290.895 435.5 271.301C435.5 251.707 419.607 235.822 400 235.822Z" fill="white"/>
</g>
<defs>
<clipPath id="clip0_84_2">
<rect width="800" height="800" fill="white"/>
</clipPath>
</defs>
</svg>
