<svg width="800" height="800" viewBox="0 0 800 800" fill="none" xmlns="http://www.w3.org/2000/svg">
<path fill-rule="evenodd" clip-rule="evenodd" d="M133.564 303.501L333.564 125.723C371.454 92.0442 428.547 92.0442 466.437 125.723L666.437 303.501C687.787 322.477 700 349.677 700 378.24V708.336H733.334C747.14 708.336 758.334 719.526 758.334 733.336C758.334 747.143 747.14 758.336 733.334 758.336H66.667C52.86 758.336 41.667 747.143 41.667 733.336C41.667 719.526 52.86 708.336 66.667 708.336H100V378.24C100 349.677 112.215 322.477 133.564 303.501ZM308.334 300.002C308.334 286.195 319.527 275.002 333.334 275.002H466.667C480.474 275.002 491.667 286.195 491.667 300.002C491.667 313.809 480.474 325.002 466.667 325.002H333.334C319.527 325.002 308.334 313.809 308.334 300.002ZM468.4 375C498.35 375 523.324 375 543.15 377.667C564.077 380.48 582.97 386.667 598.15 401.85C613.334 417.033 619.524 435.927 622.337 456.853C625.004 476.68 625 501.653 625 531.603V708.336H575V533.336C575 501.2 574.947 479.617 572.784 463.513C570.714 448.133 567.14 441.55 562.797 437.207C558.454 432.863 551.87 429.287 536.487 427.22C520.387 425.053 498.8 425.003 466.667 425.003H333.334C301.2 425.003 279.615 425.053 263.513 427.22C248.131 429.287 241.548 432.863 237.204 437.207C232.86 441.55 229.286 448.133 227.218 463.513C225.053 479.617 225 501.2 225 533.336V708.336H175V531.603C174.999 501.653 174.998 476.68 177.664 456.853C180.478 435.927 186.667 417.033 201.849 401.85C217.031 386.667 235.925 380.48 256.851 377.667C276.677 375 301.651 375 331.6 375H468.4ZM275 516.67C275 502.86 286.193 491.67 300 491.67H500C513.807 491.67 525 502.86 525 516.67C525 530.477 513.807 541.67 500 541.67H300C286.193 541.67 275 530.477 275 516.67ZM275 616.67C275 602.86 286.193 591.67 300 591.67H500C513.807 591.67 525 602.86 525 616.67C525 630.476 513.807 641.67 500 641.67H300C286.193 641.67 275 630.476 275 616.67Z" fill="white"/>
</svg>
