<svg width="38" height="38" viewBox="0 0 38 38" fill="none" xmlns="http://www.w3.org/2000/svg">
<path fill-rule="evenodd" clip-rule="evenodd" d="M15.9767 18.9411L30.6585 13.6654L33.2495 12.5911V11.8627C33.2495 10.0894 33.2495 8.60225 33.1104 7.41731C33.0908 7.24984 33.0677 7.08335 33.042 6.92801C32.9082 6.11849 32.6719 5.3633 32.2154 4.73269C31.9872 4.41737 31.704 4.13321 31.3512 3.88895C31.285 3.84316 31.2165 3.79876 31.1454 3.75582L31.1311 3.74725C29.9094 3.01693 28.5362 3.06916 27.1215 3.393C25.7533 3.7062 24.0573 4.344 21.9772 5.12608L18.3603 6.48606C17.3852 6.8526 16.5592 7.16314 15.911 7.48479C15.2212 7.82701 14.627 8.23064 14.1814 8.83211C13.7358 9.43361 13.5507 10.0818 13.4657 10.7856C13.3857 11.447 13.3857 12.2514 13.3857 13.2008V19.9524L15.9767 18.9411Z" fill="white"/>
<path d="M13.3864 25.5399C12.5138 25.0382 11.4766 24.7472 10.3636 24.7472C7.2633 24.7472 4.75 27.005 4.75 29.7901C4.75 32.5752 7.2633 34.833 10.3636 34.833C13.464 34.833 15.9773 32.5752 15.9773 29.7901V18.9409L13.3864 19.9522V25.5399Z" fill="white"/>
<path d="M30.6592 13.6651V22.4365C29.7868 21.9348 28.7494 21.6438 27.6365 21.6438C24.5362 21.6438 22.0229 23.9016 22.0229 26.6867C22.0229 29.4718 24.5362 31.7296 27.6365 31.7296C30.7368 31.7296 33.2502 29.4718 33.2502 26.6867V12.5908L30.6592 13.6651Z" fill="white"/>
</svg>
