<svg width="800" height="800" viewBox="0 0 800 800" fill="none" xmlns="http://www.w3.org/2000/svg">
<path d="M518.54 480.54L503.357 495.633C503.357 495.633 467.27 531.517 368.77 433.573C270.271 335.634 306.357 299.752 306.357 299.752L315.917 290.246C339.47 266.828 341.69 229.23 321.14 201.783L279.109 145.636C253.676 111.664 204.532 107.176 175.382 136.161L123.062 188.184C108.608 202.556 98.9216 221.186 100.096 241.854C103.101 294.727 127.024 408.49 260.512 541.22C402.07 681.973 534.893 687.566 589.21 682.503C606.39 680.903 621.33 672.153 633.37 660.18L680.723 613.1C712.687 581.317 703.673 526.83 662.777 504.6L599.093 469.98C572.24 455.383 539.527 459.67 518.54 480.54Z" fill="white"/>
</svg>
