<svg width="800" height="800" viewBox="0 0 800 800" fill="none" xmlns="http://www.w3.org/2000/svg">
<path d="M400 750C593.3 750 750 593.3 750 400C750 206.7 593.3 50 400 50C206.7 50 50 206.7 50 400C50 593.3 206.7 750 400 750Z" fill="url(#paint0_linear_191_366)"/>
<path d="M639.062 159.375L370.312 370.312L432.812 432.812L639.062 159.375Z" fill="#FF0000"/>
<path d="M159.375 639.062L370.312 370.312L432.812 432.812L159.375 639.062Z" fill="white"/>
<path d="M400 84.375V135.938ZM400 662.5V714.062ZM454.688 89.0625L445.781 139.844ZM354.219 658.281L345.312 709.375ZM507.812 103.438L490.156 151.875ZM310 646.562L292.344 695ZM345.312 89.0625L354.219 139.844ZM445.781 658.281L454.688 709.375ZM292.188 103.438L309.844 151.875ZM489.844 646.562L507.5 695ZM242.5 126.562L268.438 171.25ZM531.719 627.188L557.5 671.875ZM197.656 157.812L230.781 197.344ZM569.219 600.781L602.344 640.312ZM158.594 196.562L198.125 229.688ZM601.562 568.438L641.094 601.562ZM127.031 241.875L171.719 267.656ZM627.969 530.938L672.656 556.719ZM103.906 291.562L152.344 309.219ZM647.031 488.906L695.469 506.562ZM89.6875 344.062L140.625 353.125ZM659.375 445L710.156 453.906ZM85.1562 399.219H136.719ZM663.281 399.219H714.844ZM89.8438 453.906L140.625 445ZM659.375 353.438L710.156 344.531ZM104.375 507.031L152.812 489.375ZM647.344 309.375L695.781 291.719ZM127.344 556.719L172.031 530.938ZM628.281 267.656L672.969 241.875ZM158.75 601.562L198.281 568.438ZM601.406 230L640.938 196.875ZM197.188 640.625L230.312 601.094ZM568.75 197.656L601.875 158.125ZM242.5 671.875L268.438 627.188ZM531.719 171.25L557.5 126.562ZM372.5 85.625L375 113.75ZM425 685L427.5 713.125ZM318.438 95.3125L325.781 122.5ZM474.219 676.25L481.562 703.438ZM266.875 114.062L278.75 139.531ZM520.938 659.219L532.969 684.688ZM219.375 141.25L235.469 164.375ZM564.531 634.062L580.625 657.188ZM177.344 176.562L197.188 196.406ZM602.812 602.031L622.656 621.875ZM142.188 218.75L165.312 234.844ZM635 564.062L657.812 579.688ZM114.688 266.094L140.156 277.969ZM659.844 520.156L685.312 532.188ZM95.9375 317.656L123.125 325ZM676.875 473.438L704.062 480.781ZM86.4062 371.875L114.531 374.375ZM685.781 424.375L713.906 426.875ZM86.7188 426.875L114.844 424.375ZM686.094 374.375L714.219 371.875ZM95.9375 480.781L123.125 473.438ZM676.875 325L704.062 317.656ZM114.688 532.344L140.156 520.469ZM659.844 278.281L685.312 266.406ZM142.188 579.688L165.312 563.594ZM635 234.375L657.812 218.75ZM219.375 657.188L235.469 634.062ZM564.375 164.375L580.625 141.25ZM266.875 684.375L278.906 658.906ZM521.094 139.062L533.125 113.594ZM318.438 703.125L325.781 675.938ZM474.219 122.188L481.562 95ZM372.5 712.5L375 684.375ZM425 113.125L427.5 85Z" fill="black"/>
<path d="M400 84.375V135.938M400 662.5V714.062M454.688 89.0625L445.781 139.844M354.219 658.281L345.312 709.375M507.812 103.438L490.156 151.875M310 646.562L292.344 695M345.312 89.0625L354.219 139.844M445.781 658.281L454.688 709.375M292.188 103.438L309.844 151.875M489.844 646.562L507.5 695M242.5 126.562L268.438 171.25M531.719 627.188L557.5 671.875M197.656 157.812L230.781 197.344M569.219 600.781L602.344 640.312M158.594 196.562L198.125 229.688M601.562 568.438L641.094 601.562M127.031 241.875L171.719 267.656M627.969 530.938L672.656 556.719M103.906 291.562L152.344 309.219M647.031 488.906L695.469 506.562M89.6875 344.062L140.625 353.125M659.375 445L710.156 453.906M85.1562 399.219H136.719M663.281 399.219H714.844M89.8438 453.906L140.625 445M659.375 353.438L710.156 344.531M104.375 507.031L152.812 489.375M647.344 309.375L695.781 291.719M127.344 556.719L172.031 530.938M628.281 267.656L672.969 241.875M158.75 601.562L198.281 568.438M601.406 230L640.938 196.875M197.188 640.625L230.312 601.094M568.75 197.656L601.875 158.125M242.5 671.875L268.438 627.188M531.719 171.25L557.5 126.562M372.5 85.625L375 113.75M425 685L427.5 713.125M318.438 95.3125L325.781 122.5M474.219 676.25L481.562 703.438M266.875 114.062L278.75 139.531M520.938 659.219L532.969 684.688M219.375 141.25L235.469 164.375M564.531 634.062L580.625 657.188M177.344 176.562L197.188 196.406M602.812 602.031L622.656 621.875M142.188 218.75L165.312 234.844M635 564.062L657.812 579.688M114.688 266.094L140.156 277.969M659.844 520.156L685.312 532.188M95.9375 317.656L123.125 325M676.875 473.438L704.062 480.781M86.4062 371.875L114.531 374.375M685.781 424.375L713.906 426.875M86.7188 426.875L114.844 424.375M686.094 374.375L714.219 371.875M95.9375 480.781L123.125 473.438M676.875 325L704.062 317.656M114.688 532.344L140.156 520.469M659.844 278.281L685.312 266.406M142.188 579.688L165.312 563.594M635 234.375L657.812 218.75M219.375 657.188L235.469 634.062M564.375 164.375L580.625 141.25M266.875 684.375L278.906 658.906M521.094 139.062L533.125 113.594M318.438 703.125L325.781 675.938M474.219 122.188L481.562 95M372.5 712.5L375 684.375M425 113.125L427.5 85" stroke="white" stroke-width="4.6875"/>
<defs>
<linearGradient id="paint0_linear_191_366" x1="50" y1="50" x2="50" y2="3.58405e+06" gradientUnits="userSpaceOnUse">
<stop stop-color="#19D7FF"/>
<stop offset="1" stop-color="#1E64F0"/>
</linearGradient>
</defs>
</svg>
