<svg width="800" height="800" viewBox="0 0 800 800" fill="none" xmlns="http://www.w3.org/2000/svg">
<path d="M316.668 66.6665H483.333L505.06 283.912C511.273 346.067 462.467 400 400 400C337.537 400 288.728 346.067 294.943 283.912L316.668 66.6665Z" stroke="white" stroke-width="50"/>
<path d="M110.991 178.377C116.927 148.697 119.895 133.858 125.93 121.828C138.646 96.4795 161.526 77.7225 188.876 70.2248C201.855 66.6665 216.989 66.6665 247.257 66.6665H316.667L292.516 308.175C287.303 360.303 243.439 400 191.051 400C126.703 400 78.4411 341.13 91.0607 278.031L110.991 178.377Z" stroke="white" stroke-width="50"/>
<path d="M689.01 178.377C683.073 148.697 680.103 133.858 674.07 121.828C661.353 96.4795 638.473 77.7225 611.123 70.2248C598.143 66.6665 583.01 66.6665 552.743 66.6665H483.333L507.483 308.175C512.696 360.303 556.56 400 608.95 400C673.296 400 721.56 341.13 708.94 278.031L689.01 178.377Z" stroke="white" stroke-width="50"/>
<path d="M291.667 716.666C291.667 730.473 302.86 741.666 316.667 741.666C330.474 741.666 341.667 730.473 341.667 716.666H291.667ZM458.334 716.666C458.334 730.473 469.527 741.666 483.334 741.666C497.14 741.666 508.334 730.473 508.334 716.666H458.334ZM416.667 708.333H383.334V758.333H416.667V708.333ZM141.667 466.667V366.667H91.667V466.667H141.667ZM658.334 366.667V466.667H708.334V366.667H658.334ZM383.334 708.333C319.773 708.333 274.617 708.28 240.362 703.673C206.826 699.167 187.504 690.71 173.397 676.603L138.042 711.96C162.987 736.903 194.619 747.973 233.7 753.23C272.061 758.387 321.186 758.333 383.334 758.333V708.333ZM91.667 466.667C91.667 528.813 91.614 577.94 96.7713 616.3C102.026 655.38 113.096 687.013 138.042 711.96L173.397 676.603C159.29 662.496 150.834 643.173 146.326 609.64C141.72 575.383 141.667 530.226 141.667 466.667H91.667ZM416.667 758.333C478.814 758.333 527.94 758.387 566.3 753.23C605.38 747.973 637.014 736.903 661.96 711.96L626.604 676.603C612.497 690.71 593.174 699.167 559.64 703.673C525.384 708.28 480.227 708.333 416.667 708.333V758.333ZM658.334 466.667C658.334 530.226 658.28 575.383 653.674 609.64C649.167 643.173 640.71 662.496 626.604 676.603L661.96 711.96C686.904 687.013 697.974 655.38 703.23 616.3C708.387 577.94 708.334 528.813 708.334 466.667H658.334ZM341.667 716.666V616.666H291.667V716.666H341.667ZM458.334 616.666V716.666H508.334V616.666H458.334ZM400 558.333C416.037 558.333 426.394 558.357 434.244 559.07C441.747 559.75 444.47 560.897 445.834 561.683L470.834 518.38C460.594 512.47 449.727 510.267 438.757 509.273C428.127 508.31 415.117 508.333 400 508.333V558.333ZM508.334 616.666C508.334 601.55 508.357 588.54 507.394 577.91C506.4 566.94 504.197 556.073 498.287 545.833L454.984 570.833C455.77 572.196 456.917 574.92 457.597 582.423C458.31 590.273 458.334 600.63 458.334 616.666H508.334ZM445.834 561.683C449.634 563.877 452.79 567.033 454.984 570.833L498.287 545.833C491.704 534.433 482.234 524.963 470.834 518.38L445.834 561.683ZM341.667 616.666C341.667 600.63 341.69 590.273 342.404 582.423C343.084 574.92 344.23 572.196 345.017 570.833L301.715 545.833C295.803 556.073 293.601 566.94 292.606 577.91C291.643 588.54 291.667 601.55 291.667 616.666H341.667ZM400 508.333C384.884 508.333 371.874 508.31 361.244 509.273C350.274 510.267 339.407 512.47 329.167 518.38L354.167 561.683C355.53 560.897 358.254 559.75 365.757 559.07C373.607 558.357 383.964 558.333 400 558.333V508.333ZM345.017 570.833C347.21 567.033 350.367 563.877 354.167 561.683L329.167 518.38C317.766 524.963 308.298 534.433 301.715 545.833L345.017 570.833Z" fill="white"/>
</svg>
