<svg width="39" height="39" viewBox="0 0 39 39" fill="none" xmlns="http://www.w3.org/2000/svg">
<path d="M4.875 12.1875V4.875H12.1875" stroke="white" stroke-width="2.5" stroke-linecap="round" stroke-linejoin="round"/>
<path d="M4.875 26.8125V34.125H12.1875" stroke="white" stroke-width="2.5" stroke-linecap="round" stroke-linejoin="round"/>
<path d="M34.125 26.8125V34.125H26.8125" stroke="white" stroke-width="2.5" stroke-linecap="round" stroke-linejoin="round"/>
<path d="M26.8125 4.875H34.125V12.1875" stroke="white" stroke-width="2.5" stroke-linecap="round" stroke-linejoin="round"/>
<path d="M19.5 30.875C24.8848 30.875 29.25 25.7822 29.25 19.5C29.25 13.2178 24.8848 8.125 19.5 8.125C14.1152 8.125 9.75 13.2178 9.75 19.5C9.75 25.7822 14.1152 30.875 19.5 30.875Z" stroke="white" stroke-width="2.5"/>
<path d="M4.875 19.5H34.125" stroke="white" stroke-width="2.5" stroke-linecap="round"/>
<path d="M16.3071 24.4609C17.3373 25.2224 18.4017 25.6032 19.5005 25.6032C20.5992 25.6032 21.6929 25.2224 22.7815 24.4609" stroke="white" stroke-width="2.5" stroke-linecap="round"/>
</svg>
