<svg width="39" height="39" viewBox="0 0 39 39" fill="none" xmlns="http://www.w3.org/2000/svg">
<path d="M8.125 15.4375C8.125 15.4375 3.94643 17.0625 3.25 22.75" stroke="white" stroke-width="3" stroke-linecap="round"/>
<path d="M30.875 15.4375C30.875 15.4375 35.0536 17.0625 35.75 22.75" stroke="white" stroke-width="3" stroke-linecap="round"/>
<path d="M14.625 15.4375C14.625 15.4375 18.525 16.3854 19.5 21.125" stroke="white" stroke-width="3" stroke-linecap="round"/>
<path d="M24.375 15.4375C24.375 15.4375 20.475 16.3854 19.5 21.125" stroke="white" stroke-width="3" stroke-linecap="round"/>
<path d="M16.25 27.625C16.25 27.625 12.8375 28.2344 11.375 32.5" stroke="white" stroke-width="3" stroke-linecap="round"/>
<path d="M22.75 27.625C22.75 27.625 26.1625 28.2344 27.625 32.5" stroke="white" stroke-width="3" stroke-linecap="round"/>
<path d="M19.5 29.25C21.7437 29.25 23.5625 27.4312 23.5625 25.1875C23.5625 22.9438 21.7437 21.125 19.5 21.125C17.2563 21.125 15.4375 22.9438 15.4375 25.1875C15.4375 27.4312 17.2563 29.25 19.5 29.25Z" stroke="white" stroke-width="3" stroke-linecap="round" stroke-linejoin="round"/>
<path d="M27.625 16.25C30.3174 16.25 32.5 14.0674 32.5 11.375C32.5 8.68261 30.3174 6.5 27.625 6.5C24.9326 6.5 22.75 8.68261 22.75 11.375C22.75 14.0674 24.9326 16.25 27.625 16.25Z" stroke="white" stroke-width="3" stroke-linecap="round" stroke-linejoin="round"/>
<path d="M11.375 16.25C14.0674 16.25 16.25 14.0674 16.25 11.375C16.25 8.68261 14.0674 6.5 11.375 6.5C8.68261 6.5 6.5 8.68261 6.5 11.375C6.5 14.0674 8.68261 16.25 11.375 16.25Z" stroke="white" stroke-width="3" stroke-linecap="round" stroke-linejoin="round"/>
</svg>
