<svg width="800" height="800" viewBox="0 0 800 800" fill="none" xmlns="http://www.w3.org/2000/svg">
<path d="M397.651 346.1C427.351 346.1 451.551 370.325 451.551 400C451.551 429.675 427.326 453.125 397.651 453.125C367.976 453.125 344.526 429.675 344.526 400C344.526 370.325 367.976 346.1 397.651 346.1ZM397.651 213.275C574.226 213.275 701.551 378.9 701.551 378.9C710.151 389.85 710.151 409.375 701.551 420.3C701.551 420.3 574.201 585.925 397.651 585.925C221.101 585.925 93.7508 420.3 93.7508 420.3C85.1508 409.35 85.1508 389.825 93.7508 378.9C93.7508 378.9 221.101 213.275 397.651 213.275ZM397.651 533.6C471.101 533.6 531.251 473.45 531.251 400C531.251 326.55 471.101 266.4 397.651 266.4C324.201 266.4 264.051 326.55 264.051 400C264.051 473.45 324.201 533.6 397.651 533.6Z" fill="white"/>
</svg>
