<svg width="800" height="800" viewBox="0 0 800 800" fill="none" xmlns="http://www.w3.org/2000/svg">
<path d="M383.368 14.9599C325.8 23.9759 280.248 64.6239 265.064 120.768C260.32 138.8 260.32 167.744 265.224 186.088C272.504 212.976 285.152 234.328 304.928 253.304C311.568 259.632 321.536 267.536 326.912 270.864L336.72 277.032V354.224V431.568H258.744C214.776 431.568 175.232 432.2 167.8 433.152C141.376 436.472 110.376 448.328 88.0801 463.36C75.4241 472.056 53.9201 492.624 43.9521 505.904C33.6721 519.504 19.7521 547.504 14.8481 564.896C0.29605 616.296 9.15205 670.072 39.3601 713.728C56.1281 738.088 85.0721 761.808 111.64 773.2C138.056 784.272 174.272 788.224 201.48 782.848C235.96 776.048 266.96 759.12 291.32 733.816L302.232 722.584H399.976H497.72L508.632 733.816C552.44 779.208 616.496 796.448 674.232 778.576C716.936 765.128 752.68 733.976 773.72 691.744C806.936 625.16 794.12 544.808 741.616 489.456C716.144 462.568 687.2 445.8 649.872 436.152C636.904 432.672 632.952 432.512 549.912 432.04L463.24 431.408V408.944V386.488L445.048 374.624C435.08 368.136 426.856 362.448 426.856 361.968C426.856 361.488 435.08 355.64 445.048 348.84L463.24 336.504V306.768V277.04L473.048 270.872C501.672 253.312 525.56 220.736 534.728 186.568C539.472 169.008 539.632 138.168 534.888 120.768C521.128 70.3119 483.008 31.8799 433.192 18.5919C421.64 15.4399 393.328 13.5359 383.368 14.9599ZM433.976 44.0639C453.592 50.2319 465.928 57.8239 480.632 72.5359C495.496 87.3999 503.088 99.7439 509.416 119.984C512.576 130.104 513.056 135.008 512.896 153.992C512.896 173.6 512.424 177.56 508.624 188.784C498.816 218.68 478.888 241.136 449.472 255.688L437.928 261.384V292.544V323.544L418.952 336.04L399.968 348.536L400.288 361.976L400.76 375.424L419.424 387.92L437.928 400.576V418.92V437.424L418.952 449.92L399.968 462.416V475.864V489.304L413.888 498.32L427.648 507.496H394.904H362.008V384.432V261.536L348.88 254.896C306.808 233.232 284.352 194.952 286.56 147.664C287.984 116.344 297.632 94.0479 319.304 72.5359C336.384 55.2959 353.624 46.1199 377.984 40.9039C390.168 38.3679 421.488 40.1119 433.976 44.0639ZM336.712 482.176V507.48H311.408H286.104V520.136V532.792H399.984H513.864V520.136V507.48H488.56C463.416 507.48 463.256 507.48 463.256 503.84C463.256 501.152 459.304 497.832 445.064 488.496C435.096 482.008 426.872 476.32 426.872 475.84C426.872 475.36 433.2 470.936 440.952 465.872L455.024 456.696L546.44 457.168C634.536 457.8 638.488 457.96 650.2 461.12C708.08 477.432 748.248 518.08 762.488 575.016C767.704 595.416 767.552 635.272 762.488 654.568C746.04 715.936 695.904 757.056 634.056 760.064C587.24 762.28 545.96 743.296 517.488 706.288L510.528 697.272H400.128H289.728L280.08 709.136C259.52 733.968 231.368 751.368 201.312 757.696C170.944 763.864 135.04 759.12 108.944 745.36C76.8401 728.44 52.7921 699.968 41.248 665.488C35.08 646.664 33.024 634.168 33.024 614.088C33.024 546.08 72.0881 488.984 134.248 466.208C157.976 457.664 163.824 457.192 254.136 457.032L336.696 456.872V482.176H336.712Z" fill="white"/>
<path d="M386.688 54.5037C374.984 58.1437 361.536 72.3758 358.056 84.3998C353.624 99.4238 357.424 113.976 368.808 126C390 148.304 424.328 142.768 439.192 114.456C456.12 82.1838 421.96 43.2717 386.688 54.5037ZM413.576 82.6558C418.32 87.3998 418.952 88.9838 418.952 96.2558C418.952 103.528 418.32 105.112 413.576 109.856C408.832 114.6 407.248 115.232 399.976 115.232C392.704 115.232 391.12 114.6 386.376 109.856C381.632 105.112 381 103.528 381 96.2558C381 88.9838 381.632 87.3998 386.376 82.6558C391.12 77.9118 392.704 77.2798 399.976 77.2798C407.248 77.2798 408.832 77.9118 413.576 82.6558Z" fill="white"/>
<path d="M134.264 530.416V566L153.24 575.488L172.216 584.976L191.192 575.488L210.168 566V530.416V494.832H172.208H134.248V530.416H134.264ZM184.872 535.16V550.184L178.544 553.344L172.216 556.504L165.888 553.344L159.56 550.184V535.16V520.136H172.216H184.872V535.16Z" fill="white"/>
<path d="M616.656 496.888C608.752 499.416 594.04 514.6 591.664 522.672C590.56 526.312 589.768 530.896 589.768 532.792C589.768 550.192 610.328 570.752 627.728 570.752C645.128 570.752 665.688 550.192 665.688 532.792C665.688 524.096 661.576 516.024 653.032 507.488C641.328 495.624 630.576 492.456 616.656 496.888ZM637.216 523.296C639.272 525.352 640.376 528.512 640.376 532.784C640.376 541.168 636.104 545.44 627.72 545.44C619.336 545.44 615.064 541.168 615.064 532.784C615.064 528.512 616.168 525.352 618.224 523.296C620.28 521.24 623.44 520.136 627.712 520.136C632 520.136 635.16 521.24 637.216 523.296Z" fill="white"/>
<path d="M58.344 608.704V646.664H93.928H129.512L139 627.688L148.488 608.712L139 589.736L129.512 570.76H93.928H58.344V608.704ZM116.864 602.384L120.024 608.712L116.864 615.04L113.704 621.368H98.68H83.656V608.712V596.056H98.68H113.704L116.864 602.384Z" fill="white"/>
<path d="M205.432 589.728L195.944 608.704L205.432 627.68L214.92 646.656H250.504H286.088V608.696V570.736H250.504H214.92L205.432 589.728ZM260.792 608.704V621.36H245.768H230.744L227.584 615.032L224.424 608.704L227.584 602.376L230.744 596.048H245.768H260.792V608.704Z" fill="white"/>
<path d="M540.736 572.8C532.832 575.336 518.12 590.512 515.744 598.584C514.64 602.224 513.848 606.808 513.848 608.704C513.848 626.104 534.408 646.664 551.808 646.664C569.208 646.664 589.768 626.104 589.768 608.704C589.768 600.008 585.656 591.936 577.112 583.4C565.416 571.536 554.656 568.376 540.736 572.8ZM561.304 599.216C563.36 601.272 564.464 604.432 564.464 608.704C564.464 617.088 560.192 621.36 551.808 621.36C543.424 621.36 539.152 617.088 539.152 608.704C539.152 604.432 540.256 601.272 542.312 599.216C544.368 597.16 547.528 596.056 551.8 596.056C556.08 596.056 559.248 597.16 561.304 599.216Z" fill="white"/>
<path d="M693.208 572.8C678.184 578.496 665.688 594.632 665.688 608.384C665.688 626.096 686.088 646.656 703.648 646.656C721.048 646.656 741.608 626.096 741.608 608.696C741.608 600 737.496 591.928 728.952 583.392C717.248 571.536 705.544 568.216 693.208 572.8ZM713.136 599.216C715.192 601.272 716.296 604.432 716.296 608.704C716.296 617.088 712.024 621.36 703.64 621.36C695.256 621.36 690.984 617.088 690.984 608.704C690.984 604.432 692.088 601.272 694.144 599.216C696.2 597.16 699.36 596.056 703.632 596.056C707.92 596.056 711.08 597.16 713.136 599.216Z" fill="white"/>
<path d="M152.92 642.08L134.256 651.416V687V722.584H172.216H210.176V687V651.416L191.2 641.92C180.76 636.704 172.064 632.432 171.904 632.584C171.584 632.592 163.048 636.864 152.92 642.08ZM178.544 664.064L184.872 667.224V682.248V697.28H172.216H159.56V682.256V667.232L165.568 664.224C172.856 660.264 171.272 660.264 178.544 664.064Z" fill="white"/>
<path d="M617.296 648.72C602.272 654.416 589.776 670.544 589.776 684.304C589.776 702.016 610.176 722.576 627.736 722.576C645.136 722.576 665.696 702.016 665.696 684.616C665.696 675.92 661.584 667.848 653.04 659.312C641.328 647.456 629.632 644.136 617.296 648.72ZM637.216 675.136C639.272 677.192 640.376 680.352 640.376 684.624C640.376 693.008 636.104 697.28 627.72 697.28C619.336 697.28 615.064 693.008 615.064 684.624C615.064 676.24 619.336 671.968 627.72 671.968C632 671.976 635.16 673.08 637.216 675.136Z" fill="white"/>
<path d="M33.0321 96.2559V140.544H70.9921H108.952V108.912V77.2799H127.928H146.904V96.2559V115.232H140.576H134.248V127.888V140.544H153.224H172.2V96.2559V51.968H102.608H33.0321V96.2559ZM83.6481 96.2559V115.232H70.9921H58.3441V96.2559V77.2799H71.0001H83.6561V96.2559H83.6481Z" fill="white"/>
<path d="M660 154.776C636.904 158.888 617.928 169.328 599.264 187.992C584.08 203.176 575.696 216.304 569.688 234.648C566.048 245.56 565.576 249.992 565.576 267.072C565.576 284.152 566.048 288.584 569.688 299.496C575.696 317.84 584.08 330.968 599.264 346.152C619.512 366.4 637.696 375.728 664.744 379.68C713.616 386.64 765.496 354.848 784.312 306.448C790.952 288.888 793.328 270.544 790.952 253.464C787 226.416 777.664 208.232 757.424 187.984C742.08 172.64 728.952 164.416 710.768 158.568C696.528 154.144 673.44 152.408 660 154.776ZM700.328 180.872C739.552 190.2 766.912 225.472 766.912 267.072C766.912 317.368 728.64 355.64 678.344 355.64C628.048 355.64 589.776 317.368 589.776 267.072C589.776 225.952 616.976 190.36 655.568 181.032C667.904 178.032 687.832 178.032 700.328 180.872Z" fill="white"/>
<path d="M665.688 197.168C665.688 203.176 665.528 203.176 657.464 205.392C650.824 206.976 647.344 209.344 640.384 216.304C623.464 233.384 623.464 250.312 640.384 267.072C651.136 277.984 656.672 279.728 679.768 279.728C700.488 279.728 703.648 281.472 703.648 292.384C703.648 303.456 700.488 305.04 678.344 305.04C661.424 305.04 659.048 304.72 656.2 301.88C654.464 300.144 653.04 297.296 653.04 295.552C653.04 292.704 651.936 292.392 640.232 292.392H627.416L628.368 297.296C631.056 311.376 644.344 325.448 657.784 328.928C665.536 330.984 665.688 331.144 665.688 336.992V343H678.344H691V336.992C691 330.984 691.16 330.984 699.224 328.768C705.864 327.184 709.344 324.816 716.304 317.856C733.224 300.776 733.224 283.848 716.304 267.088C705.552 256.176 700.016 254.432 676.92 254.432C656.2 254.432 653.04 252.696 653.04 241.776C653.04 230.704 656.2 229.12 678.344 229.12C695.272 229.12 697.64 229.44 700.488 232.28C702.224 234.016 703.648 236.864 703.648 238.608C703.648 241.456 704.752 241.768 716.456 241.768H729.424L728.32 236.864C725.632 222.784 712.344 208.712 698.904 205.232C691.152 203.176 690.992 203.016 690.992 197.168V191.16H678.336H665.68V197.168H665.688Z" fill="white"/>
<path d="M33.0321 210.136V254.424H70.9921H108.952V222.792V191.16H127.928H146.904V210.136V229.112H140.576H134.248V241.768V254.424H153.224H172.2V210.136V165.848H102.608H33.0321V210.136ZM83.6481 210.136V229.112H70.9921H58.3441V210.136V191.16H71.0001H83.6561V210.136H83.6481Z" fill="white"/>
<path d="M33.0321 324.016V368.296H70.9921H108.952V336.664V305.032H127.928H146.904V324.008V342.992H140.576H134.248V355.648V368.296H153.224H172.2V324.008V279.72H102.608H33.0321V324.016ZM83.6481 324.016V342.992H70.9921H58.3441V324.016V305.04H71.0001H83.6561V324.016H83.6481Z" fill="white"/>
</svg>
