<?xml version="1.0" ?><!-- Uploaded to: SVG Repo, www.svgrepo.com, Generator: SVG Repo Mixer Tools -->
<svg width="800px" height="800px" viewBox="0 0 24 24" data-name="Layer 1" id="Layer_1" xmlns="http://www.w3.org/2000/svg"><title/><rect height="1.9997" style="fill:#637180" transform="translate(-1.77082 9.22487) rotate(-45)" width="7.77817" x="6.36091" y="5.75015"/><rect height="8" style="fill:#b3c1c9" width="1.5" x="15.5" y="3"/><rect height="19" style="fill:#637180" width="3" x="6" y="3"/><path d="M15.9999,12l-1.6-1.2,1.8-2.4a1,1,0,0,1,1.4-.2h0a.99992.99992,0,0,1,.2,1.4Z" style="fill:#4b5661"/><path d="M15,10h2a2,2,0,0,1,2,2v2a1,1,0,0,1-1,1H14a1,1,0,0,1-1-1V12A2,2,0,0,1,15,10Z" style="fill:#4b5661"/><path d="M14.75,18.75h0A.75.75,0,0,1,14,18V12h1.5v6A.75.75,0,0,1,14.75,18.75Z" style="fill:#4b5661"/><path d="M17.25,18.75h0A.75.75,0,0,1,16.5,18V12H18v6A.75.75,0,0,1,17.25,18.75Z" style="fill:#4b5661"/><rect height="2" style="fill:#4b5661" width="2" x="15" y="14"/><rect height="3" style="fill:#738394" width="12" x="6" y="2"/></svg>