<svg width="800" height="800" viewBox="0 0 800 800" fill="none" xmlns="http://www.w3.org/2000/svg">
<path fill-rule="evenodd" clip-rule="evenodd" d="M400 733.333C242.865 733.333 164.298 733.333 115.483 684.517C66.667 635.703 66.667 557.133 66.667 400C66.667 242.865 66.667 164.298 115.483 115.482C164.298 66.6667 242.865 66.6667 400 66.6667C557.134 66.6667 635.704 66.6667 684.517 115.482C733.334 164.298 733.334 242.865 733.334 400C733.334 557.133 733.334 635.703 684.517 684.517C635.704 733.333 557.134 733.333 400 733.333ZM400 275C413.807 275 425 286.193 425 300V375H500C513.807 375 525 386.193 525 400C525 413.807 513.807 425 500 425H425V500C425 513.807 413.807 525 400 525C386.194 525 375 513.807 375 500V425H300C286.193 425 275 413.807 275 400C275 386.193 286.193 375 300 375H375V300C375 286.193 386.194 275 400 275Z" fill="white"/>
</svg>
