<svg width="800" height="800" viewBox="0 0 800 800" fill="none" xmlns="http://www.w3.org/2000/svg">
<path opacity="0.4" d="M539.667 66.6667H260.667C139 66.6667 66.6665 139 66.6665 260.333V539.333C66.6665 660.667 139 733 260.333 733H539.333C660.666 733 733 660.667 733 539.333V260.333C733.333 139 661 66.6667 539.667 66.6667Z" fill="white"/>
<path d="M463.983 282.669H292.315L303.315 271.669C312.982 262.002 312.982 246.002 303.315 236.335C293.648 226.669 277.648 226.669 267.982 236.335L215.648 288.669C205.982 298.335 205.982 314.335 215.648 324.002L267.982 376.337C272.982 381.337 279.315 383.67 285.648 383.67C291.982 383.67 298.315 381.337 303.315 376.337C312.982 366.67 312.982 350.67 303.315 341.003L294.648 332.335H463.983C506.65 332.335 541.65 367.003 541.65 410.003C541.65 453.003 506.98 487.67 463.983 487.67H299.982C286.315 487.67 274.982 499.003 274.982 512.67C274.982 526.337 286.315 537.67 299.982 537.67H463.983C534.317 537.67 591.65 480.337 591.65 410.003C591.65 339.67 534.317 282.669 463.983 282.669Z" fill="white"/>
</svg>
