<svg width="800" height="800" viewBox="0 0 800 800" fill="none" xmlns="http://www.w3.org/2000/svg">
<path fill-rule="evenodd" clip-rule="evenodd" d="M333.564 125.723L133.564 303.501C112.215 322.477 100 349.677 100 378.24V708.337H66.667C52.86 708.337 41.667 719.527 41.667 733.337C41.667 747.143 52.86 758.337 66.667 758.337H733.334C747.14 758.337 758.334 747.143 758.334 733.337C758.334 719.527 747.14 708.337 733.334 708.337H700V378.24C700 349.677 687.787 322.477 666.437 303.501L466.437 125.723C428.547 92.0443 371.454 92.0443 333.564 125.723ZM333.334 275.002C319.527 275.002 308.334 286.195 308.334 300.002C308.334 313.809 319.527 325.002 333.334 325.002H466.667C480.474 325.002 491.667 313.809 491.667 300.002C491.667 286.195 480.474 275.002 466.667 275.002H333.334ZM468.4 375C498.35 375 523.324 375 543.15 377.667C564.077 380.48 582.97 386.667 598.15 401.85C613.334 417.033 619.524 435.927 622.337 456.853C625.004 476.68 625 501.653 625 531.603V708.337H575H225H175V531.603C174.999 501.653 174.998 476.68 177.664 456.853C180.478 435.927 186.667 417.033 201.849 401.85C217.031 386.667 235.925 380.48 256.851 377.667C276.677 375 301.651 375 331.6 375H468.4Z" fill="white"/>
<path opacity="0.5" d="M468.4 375H331.6C301.652 375 276.676 374.997 256.851 377.663C235.924 380.477 217.031 386.667 201.849 401.85C186.666 417.03 180.477 435.923 177.664 456.85C174.998 476.677 174.999 501.65 175 531.597V708.333H625V531.6C625 501.653 625.003 476.677 622.337 456.85C619.523 435.923 613.333 417.03 598.15 401.85C582.97 386.667 564.077 380.477 543.15 377.663C523.323 374.997 498.35 375 468.4 375Z" fill="white"/>
<path d="M300 491.667C286.193 491.667 275 502.86 275 516.667C275 530.473 286.193 541.667 300 541.667H500C513.807 541.667 525 530.473 525 516.667C525 502.86 513.807 491.667 500 491.667H300Z" fill="white"/>
<path d="M300 591.667C286.193 591.667 275 602.86 275 616.667C275 630.473 286.193 641.667 300 641.667H500C513.807 641.667 525 630.473 525 616.667C525 602.86 513.807 591.667 500 591.667H300Z" fill="white"/>
</svg>
