<svg width="800" height="800" viewBox="0 0 800 800" fill="none" xmlns="http://www.w3.org/2000/svg">
<path opacity="0.4" fill-rule="evenodd" clip-rule="evenodd" d="M41.667 400C41.667 202.098 202.098 41.6667 400 41.6667C597.904 41.6667 758.334 202.098 758.334 400C758.334 597.903 597.904 758.333 400 758.333C202.098 758.333 41.667 597.903 41.667 400Z" fill="white"/>
<path fill-rule="evenodd" clip-rule="evenodd" d="M282.322 282.322C292.086 272.559 307.915 272.559 317.678 282.322L517.677 482.323C527.44 492.087 527.44 507.913 517.677 517.677C507.913 527.44 492.083 527.44 482.32 517.677L282.322 317.678C272.559 307.914 272.559 292.085 282.322 282.322Z" fill="white"/>
<path fill-rule="evenodd" clip-rule="evenodd" d="M517.677 282.322C527.44 292.086 527.44 307.915 517.677 317.678L317.678 517.677C307.914 527.44 292.085 527.44 282.322 517.677C272.559 507.913 272.559 492.083 282.322 482.32L482.323 282.322C492.087 272.559 507.913 272.559 517.677 282.322Z" fill="white"/>
</svg>
