<svg width="800" height="800" viewBox="0 0 800 800" fill="none" xmlns="http://www.w3.org/2000/svg">
<path d="M694.237 449.023C731.596 415.017 755.06 365.987 755.06 311.484C755.06 208.795 671.815 125.552 569.128 125.552C492.671 125.552 426.997 171.714 398.438 237.681C433.474 277.21 454.78 329.17 454.78 386.022C454.78 433.702 439.441 479.929 411.745 517.961C437.91 541.047 459.49 568.95 475.251 599.91H800C786.498 536.434 747.499 482.395 694.237 449.023Z" fill="white" fill-opacity="0.4"/>
<path d="M0 674.45H461.733C448.238 610.977 409.239 556.936 355.973 523.563C393.336 489.557 416.796 440.528 416.796 386.022C416.796 283.335 333.553 200.09 230.863 200.09C128.185 200.09 44.9377 283.335 44.9377 386.022C44.9377 440.528 68.3928 489.557 105.758 523.563C52.4923 556.936 13.4951 610.975 0 674.45Z" fill="white"/>
</svg>
