<svg width="800" height="800" viewBox="0 0 800 800" fill="none" xmlns="http://www.w3.org/2000/svg">
<path d="M337.697 500.33L303.365 465.997L336.364 432.997C346.03 423.33 346.03 407.33 336.364 397.663C326.698 387.997 310.698 387.997 301.032 397.663L268.032 430.663L236.032 398.663C226.365 388.997 210.365 388.997 200.698 398.663C191.032 408.33 191.032 424.33 200.698 433.997L232.698 465.997L199.698 498.997C190.032 508.663 190.032 524.663 199.698 534.33C204.698 539.33 211.032 541.663 217.365 541.663C223.698 541.663 230.032 539.33 235.032 534.33L268.032 501.33L302.365 535.663C307.365 540.663 313.698 542.997 320.032 542.997C326.365 542.997 332.698 540.663 337.697 535.663C347.364 525.997 347.364 509.997 337.697 500.33Z" fill="white"/>
<path d="M451.31 500C432.977 500 417.644 485 417.644 466.667C417.644 448.333 432.31 433.333 450.644 433.333H451.31C469.644 433.333 484.644 448.333 484.644 466.667C484.644 485 469.977 500 451.31 500Z" fill="white"/>
<path d="M582.69 500C564.357 500 549.023 485 549.023 466.667C549.023 448.333 563.69 433.333 582.023 433.333H582.69C601.023 433.333 616.023 448.333 616.023 466.667C616.023 485 601.357 500 582.69 500Z" fill="white"/>
<path d="M516.666 565.667C498.333 565.667 483.333 551 483.333 532.667V532C483.333 513.667 498.333 498.667 516.666 498.667C535 498.667 550 513.667 550 532C550 550.333 535.333 565.667 516.666 565.667Z" fill="white"/>
<path d="M516.666 434.333C498.333 434.333 483.333 419.667 483.333 401.333V400.667C483.333 382.333 498.333 367.333 516.666 367.333C535 367.333 550 382.333 550 400.667C550 419 535.333 434.333 516.666 434.333Z" fill="white"/>
<path opacity="0.4" d="M733.334 369V555C733.334 653.333 653.334 733.333 555 733.333H245C146.667 733.333 66.667 653.333 66.667 555V369C66.667 270.666 146.667 190.666 245 190.666H555C653.334 190.666 733.334 270.666 733.334 369Z" fill="white"/>
<path d="M454.647 90.3334L454.313 121.667C453.98 151 429.647 175.333 399.98 175.333C394.98 175.333 391.98 178.667 391.98 183C391.98 187.333 395.313 190.667 399.647 190.667H345.98C345.647 188.333 345.313 185.667 345.313 183C345.313 153 369.647 128.667 399.313 128.667C404.313 128.667 407.647 125.333 407.647 121L407.98 89.6667C408.313 77 418.647 66.6667 431.313 66.6667H431.647C444.647 66.6667 454.647 77.3334 454.647 90.3334Z" fill="white"/>
</svg>
