<svg width="800" height="800" viewBox="0 0 800 800" fill="none" xmlns="http://www.w3.org/2000/svg">
<g clip-path="url(#clip0_416_397)">
<path d="M800 381.398H721.846C709.888 222.87 582.956 95.9421 424.454 84.0121V0.00219727H375.513V84.0121C217.007 95.94 90.0727 222.867 78.1536 381.398H0V430.317H78.1536C90.0705 588.843 217.005 715.771 375.513 727.724V799.998H424.454V727.724C582.956 715.771 709.888 588.843 721.846 430.317H800V381.398ZM648.158 381.398H424.454V157.676C542.479 169.219 636.607 263.382 648.158 381.398ZM375.513 157.676V381.398H151.796C163.374 263.382 257.523 169.219 375.513 157.676ZM151.796 430.317H375.513V654.041C257.523 642.491 163.374 548.355 151.796 430.317ZM424.454 654.041V430.317H648.156C636.607 548.355 542.479 642.491 424.454 654.041Z" fill="white"/>
</g>
<defs>
<clipPath id="clip0_416_397">
<rect width="800" height="800" fill="white"/>
</clipPath>
</defs>
</svg>
