<svg width="800" height="800" viewBox="0 0 800 800" fill="none" xmlns="http://www.w3.org/2000/svg">
<path fill-rule="evenodd" clip-rule="evenodd" d="M733.333 400C733.333 584.093 584.093 733.333 399.999 733.333C215.904 733.333 66.666 584.093 66.666 400C66.666 215.905 215.904 66.6666 399.999 66.6666C584.093 66.6666 733.333 215.905 733.333 400ZM399.999 591.667C413.806 591.667 424.999 580.473 424.999 566.667V366.667C424.999 352.86 413.806 341.667 399.999 341.667C386.193 341.667 374.999 352.86 374.999 366.667V566.667C374.999 580.473 386.193 591.667 399.999 591.667ZM399.999 233.333C418.409 233.333 433.333 248.257 433.333 266.667C433.333 285.076 418.409 300 399.999 300C381.589 300 366.666 285.076 366.666 266.667C366.666 248.257 381.589 233.333 399.999 233.333Z" fill="white"/>
</svg>
