<svg width="800" height="800" viewBox="0 0 800 800" fill="none" xmlns="http://www.w3.org/2000/svg">
<path d="M566.667 700H233.333C159.695 700 100 640.303 100 566.667V233.333C100 159.695 159.695 100 233.333 100H566.667C640.303 100 700 159.695 700 233.333V566.667C700 640.303 640.303 700 566.667 700Z" stroke="white" stroke-width="66.6667" stroke-linecap="round"/>
<path d="M514.552 319.228L501.822 306.19C445.587 248.584 354.412 248.584 298.177 306.19C241.941 363.795 241.941 457.192 298.177 514.796C354.412 572.401 445.587 572.401 501.822 514.796C534.524 481.298 548.21 435.693 542.879 392.065M514.552 319.228H438.183M514.552 319.228V241" stroke="white" stroke-width="50" stroke-linecap="round" stroke-linejoin="round"/>
</svg>
