<svg width="800" height="800" viewBox="0 0 800 800" fill="none" xmlns="http://www.w3.org/2000/svg">
<path opacity="0.5" fill-rule="evenodd" clip-rule="evenodd" d="M400 733.333C584.093 733.333 733.333 584.093 733.333 400C733.333 215.905 584.093 66.6667 400 66.6667C215.905 66.6667 66.6667 215.905 66.6667 400C66.6667 584.093 215.905 733.333 400 733.333ZM400 533.333C473.637 533.333 533.333 473.637 533.333 400C533.333 326.362 473.637 266.667 400 266.667C326.362 266.667 266.667 326.362 266.667 400C266.667 473.637 326.362 533.333 400 533.333Z" fill="white"/>
<path d="M182.625 652.727L325.05 510.3C311.16 500.847 299.149 488.837 289.693 474.947L147.269 617.37C158.157 630.017 169.978 641.837 182.625 652.727Z" fill="white"/>
<path d="M147.266 182.637L289.69 325.062C299.145 311.172 311.156 299.162 325.045 289.706L182.621 147.282C169.974 158.17 158.153 169.99 147.266 182.637Z" fill="white"/>
<path d="M474.93 289.709L617.353 147.285C630 158.173 641.823 169.994 652.71 182.641L510.283 325.066C500.83 311.176 488.82 299.165 474.93 289.709Z" fill="white"/>
<path d="M652.707 617.367L510.28 474.943C500.827 488.833 488.817 500.843 474.927 510.297L617.35 652.723C629.997 641.833 641.817 630.013 652.707 617.367Z" fill="white"/>
</svg>
