<svg width="800" height="800" viewBox="0 0 800 800" fill="none" xmlns="http://www.w3.org/2000/svg">
<path opacity="0.5" fill-rule="evenodd" clip-rule="evenodd" d="M475.96 71.7414C463.617 66.6667 447.967 66.6667 416.667 66.6667C385.367 66.6667 369.717 66.6667 357.373 71.7414C340.913 78.5077 327.836 91.486 321.019 107.821C317.906 115.278 316.688 123.95 316.212 136.6C315.511 155.189 305.905 172.396 289.672 181.698C273.439 190.999 253.621 190.651 237.05 181.959C225.773 176.043 217.596 172.754 209.533 171.701C191.87 169.393 174.006 174.143 159.872 184.907C149.271 192.979 141.446 206.43 125.797 233.331C110.147 260.232 102.322 273.683 100.578 286.83C98.2526 304.36 103.039 322.089 113.885 336.117C118.835 342.52 125.792 347.9 136.59 354.633C152.464 364.533 162.677 381.397 162.676 400C162.675 418.603 152.462 435.463 136.59 445.36C125.791 452.097 118.832 457.48 113.882 463.883C103.036 477.91 98.2496 495.637 100.575 513.167C102.319 526.313 110.144 539.767 125.793 566.667C141.443 593.567 149.268 607.02 159.869 615.09C174.003 625.853 191.866 630.603 209.53 628.297C217.593 627.243 225.768 623.953 237.044 618.04C253.617 609.347 273.437 609 289.671 618.3C305.905 627.603 315.511 644.81 316.212 663.403C316.688 676.05 317.906 684.723 321.019 692.18C327.836 708.513 340.913 721.493 357.373 728.26C369.717 733.333 385.367 733.333 416.667 733.333C447.967 733.333 463.617 733.333 475.96 728.26C492.42 721.493 505.497 708.513 512.313 692.18C515.427 684.723 516.647 676.05 517.123 663.4C517.823 644.81 527.427 627.603 543.66 618.3C559.893 608.997 579.713 609.347 596.287 618.04C607.563 623.953 615.737 627.24 623.8 628.293C641.463 630.603 659.327 625.853 673.46 615.09C684.063 607.017 691.887 593.567 707.537 566.663C723.187 539.763 731.01 526.313 732.757 513.167C735.08 495.637 730.293 477.907 719.45 463.88C714.497 457.477 707.54 452.093 696.74 445.36C680.87 435.463 670.657 418.6 670.657 399.997C670.657 381.393 680.87 364.537 696.74 354.64C707.543 347.903 714.5 342.523 719.453 336.117C730.297 322.091 735.083 304.362 732.76 286.832C731.013 273.685 723.19 260.234 707.54 233.333C691.89 206.432 684.067 192.982 673.463 184.909C659.33 174.145 641.467 169.395 623.803 171.703C615.74 172.756 607.563 176.045 596.29 181.96C579.717 190.653 559.897 191.001 543.663 181.699C527.43 172.397 517.823 155.189 517.12 136.598C516.643 123.949 515.427 115.278 512.313 107.821C505.497 91.486 492.42 78.5077 475.96 71.7414Z" fill="white"/>
<path d="M517.424 400C517.424 455.23 472.314 500 416.664 500C361.014 500 315.902 455.23 315.902 400C315.902 344.77 361.014 300 416.664 300C472.314 300 517.424 344.77 517.424 400Z" fill="white"/>
</svg>
