<svg width="800" height="800" viewBox="0 0 800 800" fill="none" xmlns="http://www.w3.org/2000/svg">
<path d="M483.333 733.043V616.667C483.333 585.513 483.333 569.937 476.633 558.333C472.247 550.733 465.933 544.42 458.333 540.033C446.73 533.333 431.153 533.333 400 533.333C368.847 533.333 353.27 533.333 341.667 540.033C334.067 544.42 327.754 550.733 323.365 558.333C316.667 569.937 316.667 585.513 316.667 616.667V733.043H483.333Z" fill="white"/>
<path opacity="0.5" fill-rule="evenodd" clip-rule="evenodd" d="M191.068 400C161.375 400 135.108 387.463 116.667 367.763V466.667C116.667 592.373 116.667 655.227 155.719 694.28C187.155 725.717 234.014 731.847 316.667 733.043H483.333C565.987 731.847 612.843 725.717 644.28 694.28C683.333 655.227 683.333 592.373 683.333 466.667V367.8C664.893 387.48 638.64 400 608.967 400C556.577 400 512.713 360.303 507.5 308.174L505.067 283.911C511.283 346.067 462.473 400 400.01 400C337.967 400 289.397 346.793 294.833 285.17L292.533 308.174C287.32 360.303 243.456 400 191.068 400ZM483.333 616.667V733.043H316.667V616.667C316.667 585.513 316.667 569.937 323.365 558.333C327.754 550.733 334.067 544.42 341.667 540.033C353.27 533.333 368.847 533.333 400 533.333C431.153 533.333 446.73 533.333 458.333 540.033C465.933 544.42 472.247 550.733 476.633 558.333C483.333 569.937 483.333 585.513 483.333 616.667Z" fill="white"/>
<path d="M316.66 66.6667H483.327L505.05 283.912C511.267 346.067 462.457 400 399.993 400C337.53 400 288.72 346.067 294.935 283.912L316.66 66.6667Z" fill="white"/>
<path opacity="0.7" d="M111.008 178.378C116.944 148.698 119.912 133.858 125.947 121.828C138.662 96.4797 161.543 77.7227 188.892 70.2251C201.872 66.6667 217.006 66.6667 247.273 66.6667H316.684L292.533 308.176C287.32 360.303 243.456 400 191.068 400C126.72 400 78.4577 341.13 91.0773 278.031L111.008 178.378Z" fill="white"/>
<path opacity="0.7" d="M689.01 178.378C683.073 148.698 680.103 133.858 674.07 121.828C661.353 96.4797 638.473 77.7227 611.123 70.2251C598.143 66.6667 583.01 66.6667 552.743 66.6667H483.333L507.483 308.176C512.697 360.303 556.56 400 608.95 400C673.297 400 721.56 341.13 708.94 278.031L689.01 178.378Z" fill="white"/>
</svg>
