<svg width="800" height="800" viewBox="0 0 800 800" fill="none" xmlns="http://www.w3.org/2000/svg">
<path d="M200 600C200 537.147 200 505.72 219.526 486.193C239.052 466.667 270.479 466.667 333.333 466.667H466.667C529.52 466.667 560.947 466.667 580.473 486.193C600 505.72 600 537.147 600 600C600 662.853 600 694.28 580.473 713.807C560.947 733.333 529.52 733.333 466.667 733.333H333.333C270.479 733.333 239.052 733.333 219.526 713.807C200 694.28 200 662.853 200 600Z" fill="white"/>
<path opacity="0.5" d="M342.857 130.303C342.857 111.406 360.787 91.6667 388.657 91.6667C416.527 91.6667 434.457 111.406 434.457 130.303C434.457 140.712 430.744 149.704 424.674 156.308C420.91 160.402 416.76 164.495 412.03 169.161L409.324 171.836C403.704 177.394 397.437 183.691 391.71 190.426C382.864 200.826 373.28 214.55 369.767 231.417C348.854 234.942 328.525 242.931 310.643 255.51L74.1196 421.887C43.2196 443.62 35.2689 478.637 46.5226 507.973C57.5929 536.833 86.3216 558.333 123.411 558.333H200.308C200.848 537.093 202.334 520.98 206.425 508.333H123.411C106.655 508.333 96.7286 499.25 93.2056 490.063C89.8659 481.357 91.3836 470.873 102.887 462.78L339.41 296.405C355.084 285.379 374.187 279.555 393.667 279.328C413.31 279.1 432.75 284.571 448.837 295.415L696.587 462.427C708.477 470.443 710.127 481.047 706.87 489.83C703.434 499.097 693.52 508.333 676.577 508.333H593.577C597.667 520.98 599.154 537.093 599.694 558.333H676.577C714.064 558.333 742.917 536.427 753.75 507.217C764.764 477.52 756.187 442.307 724.534 420.967L476.784 253.955C460.314 242.853 441.914 235.561 422.964 231.963C424.654 229.265 426.887 226.24 429.797 222.819C434.007 217.872 438.917 212.891 444.487 207.38L446.95 204.95C451.654 200.314 456.817 195.223 461.48 190.147C476.217 174.118 484.457 152.976 484.457 130.303C484.457 78.909 438.99 41.6667 388.657 41.6667C338.324 41.6667 292.856 78.909 292.856 130.303C292.856 144.11 304.049 155.303 317.856 155.303C331.663 155.303 342.857 144.11 342.857 130.303Z" fill="white"/>
</svg>
